<?xml version="1.0" encoding="UTF-8" standalone="no"?>
<svg width="750px" height="296px" viewBox="0 0 750 296" version="1.1" xmlns="http://www.w3.org/2000/svg" xmlns:xlink="http://www.w3.org/1999/xlink">
    <!-- Generator: Sketch 3.6.1 (26313) - http://www.bohemiancoding.com/sketch -->
    <title>3</title>
    <desc>Created with Sketch.</desc>
    <defs>
        <path id="path-1" d="M27.2402,0.953 L0.1752,0.953 L0.1752,27.9857351 L27.2402,27.9857351 L27.2402,0.953 L27.2402,0.953 Z"></path>
        <path id="path-3" d="M0,162.047 L481.25,162.047 L481.25,1 L0,1 L0,162.047 Z"></path>
        <path id="path-5" d="M35.041,32.9998 L35.041,0.3368 L0.8504,0.3368 L0.8504,32.9998 L35.041,32.9998 L35.041,32.9998 Z"></path>
    </defs>
    <g id="Page-2" stroke="none" stroke-width="1" fill="none" fill-rule="evenodd">
        <g id="iPhone-6-Copy-2" transform="translate(0.000000, -2261.000000)">
            <g id="3" transform="translate(0.000000, 2261.000000)">
                <rect id="Rectangle-36" fill-opacity="0.01" fill="#D8D8D8" x="0" y="0" width="750" height="296"></rect>
                <g id="3-找到心仪的人" transform="translate(40.000000, 0.000000)">
                    <g id="Page-1" transform="translate(106.000000, 86.000000)">
                        <g id="Group-3" transform="translate(0.000000, 0.047000)">
                            <mask id="mask-2" fill="white">
                                <use xlink:href="#path-1"></use>
                            </mask>
                            <g id="Clip-2"></g>
                            <path d="M24.3682,20.2588 C23.0422,17.3738 21.4962,14.1748 19.7282,10.6638 L22.3802,9.1438 C23.7052,11.6408 25.3242,14.7998 27.2402,18.6208 L24.3682,20.2588 Z M16.1932,9.9628 C14.8682,8.3238 12.8052,6.0628 10.0072,3.1758 L12.1062,0.9528 C14.6092,3.2928 16.7072,5.4398 18.4032,7.3888 L16.1932,9.9628 Z M11.8852,27.9818 C8.7912,28.0588 7.2812,26.5368 7.3552,23.4178 L7.3552,7.2718 L10.5592,7.2718 L10.5592,22.7168 C10.4852,24.4338 11.2582,25.2518 12.8792,25.1738 L16.3042,25.1738 C17.8502,25.2518 18.7702,24.4718 19.0652,22.8328 C19.0652,22.5998 19.1012,22.1718 19.1762,21.5458 C19.3232,20.4548 19.4332,19.5978 19.5072,18.9718 C19.8752,19.0508 20.3912,19.2458 21.0542,19.5578 C21.7892,19.7908 22.3052,19.9868 22.6002,20.1428 C22.3802,21.8598 22.1202,23.4178 21.8272,24.8218 C21.4582,27.0058 19.8012,28.0588 16.8562,27.9818 L11.8852,27.9818 Z M3.0472,22.1308 C2.6782,21.8978 2.0152,21.6248 1.0582,21.3128 C0.6172,21.1568 0.3222,21.0398 0.1752,20.9608 C1.5002,16.7488 2.4942,13.0448 3.1582,9.8458 L6.1402,10.7808 C5.1822,14.6828 4.1522,18.4658 3.0472,22.1308 L3.0472,22.1308 Z" id="Fill-1" fill="#DEC971" mask="url(#mask-2)"></path>
                        </g>
                        <path d="M46.772,8.839 C45.96,6.422 45.115,4.199 44.231,2.17 L46.882,1.234 C47.838,3.418 48.76,5.604 49.644,7.786 L46.772,8.839 Z M38.928,29.082 C38.486,28.223 37.896,27.286 37.161,26.274 C40.475,24.559 43.126,22.725 45.115,20.775 C43.052,18.123 41.431,14.496 40.254,9.893 C39.812,8.488 39.443,6.891 39.149,5.095 L41.911,4.393 C42.279,6.031 42.61,7.552 42.905,8.956 C43.936,13.013 45.372,16.211 47.214,18.551 C49.349,15.821 50.896,12.233 51.854,7.786 C52.147,6.616 52.406,5.291 52.627,3.808 L55.499,4.393 C55.278,5.876 54.983,7.279 54.615,8.606 C53.362,13.832 51.595,17.889 49.313,20.775 C51.301,22.647 53.804,24.284 56.825,25.689 C56.676,25.999 56.383,26.546 55.941,27.326 C55.499,28.028 55.168,28.535 54.947,28.848 C51.412,26.741 48.833,24.869 47.214,23.232 C45.225,25.104 42.463,27.053 38.928,29.082 L38.928,29.082 Z M30.753,18.318 C30.459,16.913 30.127,15.666 29.759,14.572 C32.704,9.971 34.692,5.525 35.725,1.234 L38.708,2.17 C37.97,4.355 37.161,6.499 36.277,8.606 L36.277,29.082 L33.405,29.082 L33.405,14.222 C32.521,15.626 31.637,16.991 30.753,18.318 L30.753,18.318 Z" id="Fill-4" fill="#DEC971"></path>
                        <path d="M78.0132,20.6574 C76.7602,18.6304 75.3982,16.5614 73.9262,14.4564 L76.2452,12.9344 C77.5712,14.5724 79.0072,16.5614 80.5542,18.9024 L78.0132,20.6574 Z M75.6932,28.4974 C75.5452,27.3264 75.3622,26.3504 75.1412,25.5714 L77.1292,25.5714 C78.0862,25.6504 78.8232,25.6884 79.3392,25.6884 C81.3272,25.6884 82.3222,24.6764 82.3222,22.6464 C82.3942,21.3994 82.4682,18.7464 82.5422,14.6894 C82.6152,11.8044 82.6532,9.7754 82.6532,8.6054 L76.5772,8.6054 C75.9142,10.1674 75.2512,11.6094 74.5892,12.9344 C74.4402,12.8574 74.2192,12.7004 73.9262,12.4674 C73.5562,12.2324 72.9312,11.8824 72.0482,11.4134 C73.7412,8.1364 75.0672,4.7054 76.0252,1.1164 L79.0072,1.8184 C78.9332,2.1314 78.7862,2.5604 78.5652,3.1054 C78.2702,4.1994 77.9752,5.0564 77.6812,5.6794 L85.6362,5.6794 C85.4872,14.1834 85.3412,20.0334 85.1942,23.2314 C85.2662,26.7414 83.6832,28.4564 80.4442,28.3804 C78.9702,28.4564 77.3872,28.4974 75.6932,28.4974 L75.6932,28.4974 Z M63.6522,23.6994 L68.8442,23.6994 L68.8442,17.6154 L63.6522,17.6154 L63.6522,23.6994 Z M63.6522,14.6894 L68.8442,14.6894 L68.8442,8.6054 L63.6522,8.6054 L63.6522,14.6894 Z M60.7802,28.6134 L60.7802,5.6794 L63.7632,5.6794 C63.9832,4.8224 64.2772,3.6524 64.6462,2.1704 C64.7192,1.7024 64.7932,1.3504 64.8672,1.1164 L67.9602,1.5854 C67.6652,2.9894 67.2972,4.3544 66.8552,5.6794 L71.6062,5.6794 L71.6062,28.4974 L68.8442,28.4974 L68.8442,26.3904 L63.6522,26.3904 L63.6522,28.6134 L60.7802,28.6134 Z" id="Fill-6" fill="#DEC971"></path>
                        <path d="M113.894,28.4972 C107.633,24.9862 103.952,19.9172 102.847,13.2852 C101.742,19.8382 97.986,25.0262 91.579,28.8482 C90.988,27.8332 90.29,26.8582 89.48,25.9232 C96.55,22.1012 100.342,16.2512 100.858,8.3712 C101.005,6.4992 101.079,4.1592 101.079,1.3512 L104.394,1.3512 C104.319,1.5852 104.283,2.2872 104.283,3.4572 C104.209,4.3932 104.172,5.0952 104.172,5.5622 C104.835,15.7042 108.812,22.3742 116.103,25.5712 C115.145,26.6632 114.408,27.6382 113.894,28.4972" id="Fill-8" fill="#DEC971"></path>
                        <path d="M20.8315,89.6691 C20.7685,89.4021 20.6425,89.0341 20.4525,88.5651 C19.3165,85.3571 18.4005,82.9161 17.7065,81.2441 L20.0745,80.4411 C20.9575,82.7831 22.0295,85.5571 23.2935,88.7661 L20.8315,89.6691 Z M10.5105,93.1791 C10.3835,92.2421 10.2265,91.3741 10.0375,90.5711 L12.4985,90.5711 C13.5075,90.6371 13.9815,90.1701 13.9195,89.1671 L13.9195,77.2321 L16.4765,77.2321 L16.4765,89.7691 C16.5385,91.9761 15.5285,93.0791 13.4455,93.0791 C13.1925,93.0791 12.7195,93.1111 12.0255,93.1791 L10.5105,93.1791 Z M9.2795,89.7691 C8.6475,89.4361 7.8585,89.0661 6.9125,88.6661 C7.9215,86.5941 9.0265,83.8181 10.2265,80.3421 L12.4985,81.1441 C11.7415,83.4851 10.6675,86.3591 9.2795,89.7691 L9.2795,89.7691 Z M21.3995,79.6401 C21.2725,79.6401 21.0825,79.5731 20.8315,79.4391 C19.9465,79.2381 19.3165,79.1051 18.9375,79.0371 L20.2635,75.4271 L11.5515,75.4271 C10.8565,76.9661 9.9735,78.5701 8.9005,80.2411 C8.3325,79.6401 7.6695,79.0371 6.9125,78.4361 C8.8065,75.7631 10.1935,72.8191 11.0785,69.6101 L13.7295,70.0111 C13.3515,71.0811 12.9725,72.0521 12.5935,72.9201 L22.8205,72.9201 L22.8205,75.3271 L21.3995,79.6401 Z M0.9465,84.3541 C0.6935,83.5511 0.4735,82.5151 0.2835,81.2441 C0.2205,81.1101 0.1895,81.0111 0.1895,80.9431 C2.3975,77.4001 4.0715,73.5561 5.2075,69.4091 L7.8585,70.1111 C7.1635,72.1171 6.4385,74.0581 5.6815,75.9291 L5.6815,93.3801 L3.1245,93.3801 L3.1245,80.8431 C2.4295,82.1131 1.7045,83.2841 0.9465,84.3541 L0.9465,84.3541 Z" id="Fill-10" fill="#B1AEAE"></path>
                        <path d="M46.3789,90.9728 C45.4939,89.3688 44.4209,87.4968 43.1599,85.3568 L45.2429,84.2528 C45.8729,85.2558 46.7579,86.7278 47.8939,88.6658 C48.2089,89.2018 48.4619,89.6028 48.6509,89.8688 L46.3789,90.9728 Z M37.9519,88.1638 C37.1299,86.6268 36.2469,85.3238 35.2999,84.2528 L37.2889,82.8488 C37.4149,83.0488 37.6349,83.3508 37.9519,83.7508 C38.8989,84.9548 39.6239,85.8918 40.1289,86.5598 L37.9519,88.1638 Z M34.5429,92.8778 C32.4599,92.9448 31.4179,91.8078 31.4179,89.4678 L31.4179,84.6548 L33.8799,84.6548 L33.8799,88.7658 C33.8799,89.9698 34.4789,90.5718 35.6789,90.5718 L38.8989,90.5718 C40.2859,90.5718 41.0129,90.0698 41.0759,89.0668 C41.2659,88.3318 41.3919,87.5628 41.4549,86.7598 C42.2119,87.0288 43.0319,87.3288 43.9169,87.6628 C43.7279,88.6658 43.5059,89.6358 43.2539,90.5718 C42.8759,92.1758 41.6449,92.9448 39.5609,92.8778 L34.5429,92.8778 Z M31.0389,80.3418 L43.2539,80.3418 L43.2539,75.7278 L31.0389,75.7278 L31.0389,80.3418 Z M28.4829,82.6488 L28.4829,73.3218 L32.8379,73.3218 C32.2069,72.2518 31.5129,71.2148 30.7549,70.2118 L33.2169,69.3098 C33.5959,69.8448 34.0999,70.5468 34.7319,71.4148 C35.1109,72.0168 35.4259,72.4858 35.6789,72.8198 L34.3539,73.3218 L38.6139,73.3218 C39.3719,71.9848 40.1289,70.6808 40.8869,69.4098 L43.6329,70.2118 C43.2539,70.6808 42.7479,71.4148 42.1179,72.4178 C41.8649,72.8198 41.6749,73.1198 41.5499,73.3218 L45.9049,73.3218 L45.9049,82.6488 L28.4829,82.6488 Z M27.9149,91.6748 C27.3459,91.2738 26.6199,90.9378 25.7359,90.6718 C26.5559,88.8668 27.2519,86.8268 27.8199,84.5538 L30.1869,85.3568 C29.3659,88.0988 28.6079,90.2048 27.9149,91.6748 L27.9149,91.6748 Z" id="Fill-12" fill="#B1AEAE"></path>
                        <path d="M62.8359,72.4181 C61.0039,74.5591 59.0159,76.3641 56.8709,77.8341 L68.5179,77.8341 C66.1809,76.2971 64.2879,74.4911 62.8359,72.4181 L62.8359,72.4181 Z M51.8519,85.6571 L51.8519,83.1491 L73.3469,83.1491 L73.3469,85.6571 L61.7939,85.6571 C60.3409,87.2621 58.9539,88.8011 57.6279,90.2711 C58.0689,90.2711 58.7319,90.2371 59.6169,90.1701 C62.7729,90.1051 65.2339,90.0041 67.0029,89.8691 L64.9189,87.5631 L66.7179,86.0581 C67.3489,86.7281 68.3279,87.7631 69.6539,89.1671 C70.8519,90.3051 71.7369,91.1731 72.3049,91.7741 L70.3159,93.5801 C69.8739,92.9791 69.4009,92.4421 68.8959,91.9761 C65.9919,91.9761 62.2679,92.1421 57.7229,92.4771 C56.5859,92.5431 55.6069,92.6781 54.7879,92.8781 L53.5569,90.4711 C54.3759,90.0691 55.0709,89.5681 55.6399,88.9671 C56.3969,88.2311 57.3749,87.1281 58.5749,85.6571 L51.8519,85.6571 Z M72.5889,80.3421 C71.8939,79.9401 70.9159,79.3731 69.6539,78.6371 C69.2749,78.3701 68.9909,78.1691 68.8009,78.0341 L68.8009,80.3421 L56.3969,80.3421 L56.3969,78.2351 C55.1969,79.0371 53.9029,79.8401 52.5149,80.6431 C52.3259,80.1751 51.9139,79.4741 51.2839,78.5361 C51.2199,78.4031 51.1569,78.3031 51.0949,78.2351 C55.8909,75.7631 59.4589,72.7861 61.7939,69.3101 L64.8249,69.6101 L64.2559,70.4121 C66.5289,73.5561 69.8109,76.0281 74.1039,77.8341 C73.5979,78.6371 73.0939,79.4741 72.5889,80.3421 L72.5889,80.3421 Z" id="Fill-14" fill="#B1AEAE"></path>
                        <mask id="mask-4" fill="white">
                            <use xlink:href="#path-3"></use>
                        </mask>
                        <g id="Clip-17"></g>
                        <path d="M92.076,77.433 L95.39,77.433 L95.39,75.528 L92.076,75.528 L92.076,77.433 Z M92.077,74.022 L95.391,74.022 L95.391,72.117 L92.077,72.117 L92.077,74.022 Z M86.584,77.433 L89.803,77.433 L89.803,75.528 L86.584,75.528 L86.584,77.433 Z M86.584,74.023 L89.803,74.023 L89.803,72.118 L86.584,72.118 L86.584,74.023 Z M84.406,79.138 L84.406,70.513 L97.568,70.513 L97.568,79.138 L92.076,79.138 L92.076,80.742 L98.61,80.742 L98.61,87.061 C98.672,88.801 97.853,89.669 96.148,89.669 L93.023,89.669 C93.023,89.335 92.896,88.766 92.645,87.964 C92.834,88.031 93.653,88.064 95.106,88.064 C95.99,88.064 96.399,87.663 96.337,86.86 L96.337,82.548 L91.697,82.548 L91.697,84.855 L93.497,84.654 L93.023,83.551 L94.349,83.15 C94.475,83.418 94.633,83.818 94.822,84.354 C95.263,85.357 95.58,86.158 95.769,86.76 L94.349,87.262 L94.065,86.359 C90.592,86.627 88.067,86.827 86.49,86.961 L86.3,85.055 L89.804,84.955 L89.804,82.548 L85.637,82.548 L85.637,89.468 L83.459,89.468 L83.459,80.742 L89.804,80.742 L89.804,79.138 L84.406,79.138 Z M80.524,75.828 C80.335,75.494 80.018,74.96 79.577,74.224 C78.756,72.754 78.125,71.684 77.684,71.014 L79.672,69.811 C80.934,71.55 81.944,73.087 82.702,74.424 L80.524,75.828 Z M77.399,93.38 L76.358,90.672 C77.305,89.736 78.219,88.833 79.104,87.964 L79.104,80.542 L76.736,80.542 L76.736,77.935 L81.471,77.935 L81.471,88.064 C82.543,89.736 84.217,90.571 86.49,90.571 C90.15,90.637 94.538,90.637 99.651,90.571 C99.272,91.307 99.02,92.109 98.894,92.979 C97.315,92.979 95.168,92.944 92.455,92.878 C89.487,92.878 87.342,92.844 86.016,92.777 C83.491,92.71 81.597,91.841 80.335,90.17 C79.388,91.038 78.408,92.109 77.399,93.38 L77.399,93.38 Z" id="Fill-16" fill="#B1AEAE" mask="url(#mask-4)"></path>
                        <path d="M117.3394,93.0792 C117.2124,92.0762 117.0554,91.2392 116.8664,90.5712 L119.9904,90.5712 C121.0004,90.5712 121.4734,90.0372 121.4114,88.9672 L121.4114,69.6102 L123.9674,69.6102 L123.9674,89.6692 C124.0934,91.8752 123.0834,93.0122 120.9374,93.0792 L117.3394,93.0792 Z M116.3924,87.3632 L118.7594,87.3632 L118.7594,72.2182 L116.3924,72.2182 L116.3924,87.3632 Z M102.3784,73.1202 L102.3784,70.7132 L115.1614,70.7132 L115.1614,73.1202 L109.0064,73.1202 C108.9434,73.2552 108.8174,73.4562 108.6284,73.7222 C107.4914,75.5952 106.5764,76.9992 105.8814,77.9342 C106.5764,77.8682 107.6814,77.8012 109.1964,77.7332 C110.1434,77.6682 110.8684,77.6342 111.3744,77.6342 C110.9954,76.8982 110.5224,76.1292 109.9534,75.3272 L111.8474,74.2242 C111.9734,74.4912 112.1934,74.8592 112.5104,75.3272 C113.8984,77.4682 114.8774,79.0372 115.4454,80.0402 L113.4574,81.3452 C113.1404,80.8092 112.8894,80.3082 112.6994,79.8402 C109.2274,79.9752 106.7964,80.1072 105.4084,80.2412 C105.0914,80.2412 104.6184,80.3082 103.9884,80.4412 C103.6724,80.5092 103.4514,80.5422 103.3254,80.5422 L102.4734,78.2352 C102.9144,77.9692 103.2614,77.7012 103.5144,77.4332 C104.4624,76.1632 105.3764,74.7252 106.2604,73.1202 L102.3784,73.1202 Z M102.6624,85.8572 L102.6624,83.4502 L107.4914,83.4502 L107.4914,80.9432 L109.9534,80.9432 L109.9534,83.4502 L114.6884,83.4502 L114.6884,85.8572 L109.9534,85.8572 L109.9534,89.4682 L115.2564,88.8662 C115.1934,89.4022 115.1614,90.1702 115.1614,91.1732 C114.1514,91.3072 112.6364,91.4742 110.6164,91.6752 C107.1444,92.0762 104.4294,92.4092 102.4734,92.6782 L102.0944,90.1702 C103.1034,90.1042 104.7134,89.9702 106.9234,89.7682 C105.4084,89.9032 105.5984,89.8692 107.4914,89.6692 L107.4914,85.8572 L102.6624,85.8572 Z" id="Fill-18" fill="#B1AEAE" mask="url(#mask-4)"></path>
                        <path d="M148.0947,89.6691 C148.0317,89.4021 147.9057,89.0341 147.7157,88.5651 C146.5797,85.3571 145.6637,82.9161 144.9697,81.2441 L147.3377,80.4411 C148.2207,82.7831 149.2927,85.5571 150.5567,88.7661 L148.0947,89.6691 Z M137.7737,93.1791 C137.6467,92.2421 137.4897,91.3741 137.3007,90.5711 L139.7617,90.5711 C140.7707,90.6371 141.2447,90.1701 141.1827,89.1671 L141.1827,77.2321 L143.7397,77.2321 L143.7397,89.7691 C143.8017,91.9761 142.7917,93.0791 140.7087,93.0791 C140.4557,93.0791 139.9827,93.1111 139.2887,93.1791 L137.7737,93.1791 Z M136.5427,89.7691 C135.9107,89.4361 135.1217,89.0661 134.1757,88.6661 C135.1847,86.5941 136.2897,83.8181 137.4897,80.3421 L139.7617,81.1441 C139.0047,83.4851 137.9307,86.3591 136.5427,89.7691 L136.5427,89.7691 Z M148.6627,79.6401 C148.5357,79.6401 148.3457,79.5731 148.0947,79.4391 C147.2097,79.2381 146.5797,79.1051 146.2007,79.0371 L147.5267,75.4271 L138.8147,75.4271 C138.1197,76.9661 137.2367,78.5701 136.1637,80.2411 C135.5957,79.6401 134.9327,79.0371 134.1757,78.4361 C136.0697,75.7631 137.4567,72.8191 138.3417,69.6101 L140.9927,70.0111 C140.6147,71.0811 140.2357,72.0521 139.8567,72.9201 L150.0837,72.9201 L150.0837,75.3271 L148.6627,79.6401 Z M128.2097,84.3541 C127.9567,83.5511 127.7367,82.5151 127.5467,81.2441 C127.4837,81.1101 127.4527,81.0111 127.4527,80.9431 C129.6607,77.4001 131.3347,73.5561 132.4707,69.4091 L135.1217,70.1111 C134.4267,72.1171 133.7017,74.0581 132.9447,75.9291 L132.9447,93.3801 L130.3877,93.3801 L130.3877,80.8431 C129.6927,82.1131 128.9677,83.2841 128.2097,84.3541 L128.2097,84.3541 Z" id="Fill-19" fill="#B1AEAE" mask="url(#mask-4)"></path>
                        <path d="M173.5474,85.9581 C172.4114,83.4851 171.0854,80.7421 169.5704,77.7331 L171.8424,76.4301 C172.9794,78.5701 174.3674,81.2781 176.0094,84.5541 L173.5474,85.9581 Z M166.5404,77.1321 C165.4044,75.7281 163.6364,73.7891 161.2374,71.3151 L163.0364,69.4091 C165.1824,71.4151 166.9814,73.2551 168.4344,74.9261 L166.5404,77.1321 Z M162.8474,92.5771 C160.1964,92.6431 158.9014,91.3391 158.9654,88.6661 L158.9654,74.8251 L161.7114,74.8251 L161.7114,88.0631 C161.6474,89.5351 162.3104,90.2371 163.6994,90.1701 L166.6354,90.1701 C167.9614,90.2371 168.7494,89.5681 169.0024,88.1641 C169.0024,87.9641 169.0334,87.5971 169.0974,87.0611 C169.2224,86.1251 169.3174,85.3911 169.3804,84.8541 C169.6964,84.9221 170.1384,85.0901 170.7064,85.3561 C171.3374,85.5571 171.7794,85.7251 172.0324,85.8571 C171.8424,87.3291 171.6214,88.6661 171.3694,89.8691 C171.0524,91.7401 169.6324,92.6431 167.1084,92.5771 L162.8474,92.5771 Z M155.2724,87.5621 C154.9554,87.3621 154.3874,87.1281 153.5684,86.8601 C153.1894,86.7281 152.9364,86.6271 152.8104,86.5601 C153.9464,82.9491 154.7984,79.7741 155.3674,77.0311 L157.9234,77.8341 C157.1024,81.1781 156.2194,84.4211 155.2724,87.5621 L155.2724,87.5621 Z" id="Fill-20" fill="#B1AEAE" mask="url(#mask-4)"></path>
                        <path d="M192.75,76.129 C192.055,74.058 191.33,72.151 190.572,70.412 L192.845,69.61 C193.665,71.483 194.455,73.356 195.212,75.227 L192.75,76.129 Z M186.027,93.48 C185.648,92.743 185.142,91.941 184.512,91.073 C187.353,89.603 189.625,88.031 191.33,86.359 C189.562,84.087 188.172,80.978 187.164,77.031 C186.785,75.828 186.468,74.459 186.216,72.92 L188.583,72.318 C188.899,73.722 189.183,75.025 189.436,76.23 C190.319,79.707 191.55,82.447 193.129,84.453 C194.959,82.113 196.285,79.037 197.106,75.227 C197.357,74.224 197.579,73.087 197.769,71.817 L200.23,72.318 C200.041,73.589 199.788,74.792 199.473,75.929 C198.399,80.409 196.884,83.886 194.928,86.359 C196.632,87.964 198.778,89.368 201.367,90.571 C201.24,90.838 200.988,91.307 200.609,91.976 C200.23,92.577 199.946,93.012 199.757,93.279 C196.727,91.474 194.517,89.869 193.129,88.465 C191.424,90.069 189.057,91.74 186.027,93.48 L186.027,93.48 Z M179.02,84.253 C178.767,83.049 178.483,81.981 178.168,81.043 C180.692,77.099 182.396,73.288 183.281,69.61 L185.838,70.412 C185.206,72.285 184.512,74.123 183.754,75.929 L183.754,93.48 L181.292,93.48 L181.292,80.742 C180.535,81.946 179.777,83.116 179.02,84.253 L179.02,84.253 Z" id="Fill-21" fill="#B1AEAE" mask="url(#mask-4)"></path>
                        <path d="M219.5283,86.2589 C218.4543,84.5209 217.2863,82.7479 216.0253,80.9439 L218.0133,79.6399 C219.1493,81.0429 220.3803,82.7479 221.7063,84.7539 L219.5283,86.2589 Z M217.5403,92.9789 C217.4123,91.9759 217.2563,91.1389 217.0663,90.4709 L218.7713,90.4709 C219.5903,90.5379 220.2223,90.5709 220.6643,90.5709 C222.3693,90.5709 223.2213,89.7029 223.2213,87.9639 C223.2833,86.8949 223.3473,84.6209 223.4103,81.1439 C223.4723,78.6709 223.5053,76.9319 223.5053,75.9289 L218.2973,75.9289 C217.7293,77.2669 217.1613,78.5029 216.5923,79.6399 C216.4653,79.5729 216.2763,79.4389 216.0253,79.2379 C215.7083,79.0369 215.1723,78.7369 214.4153,78.3359 C215.8663,75.5279 217.0033,72.5859 217.8233,69.5099 L220.3803,70.1119 C220.3173,70.3799 220.1913,70.7479 220.0023,71.2149 C219.7493,72.1519 219.4953,72.8869 219.2443,73.4209 L226.0623,73.4209 C225.9343,80.7099 225.8093,85.7249 225.6833,88.4649 C225.7453,91.4739 224.3883,92.9449 221.6113,92.8779 C220.3483,92.9449 218.9913,92.9789 217.5403,92.9789 L217.5403,92.9789 Z M207.2183,88.8659 L211.6683,88.8659 L211.6683,83.6509 L207.2183,83.6509 L207.2183,88.8659 Z M207.2183,81.1439 L211.6683,81.1439 L211.6683,75.9289 L207.2183,75.9289 L207.2183,81.1439 Z M204.7573,93.0789 L204.7573,73.4209 L207.3133,73.4209 C207.5033,72.6869 207.7543,71.6839 208.0703,70.4119 C208.1323,70.0109 208.1963,69.7099 208.2603,69.5099 L210.9113,69.9109 C210.6583,71.1139 210.3433,72.2849 209.9653,73.4209 L214.0363,73.4209 L214.0363,92.9789 L211.6693,92.9789 L211.6693,91.1729 L207.2183,91.1729 L207.2183,93.0789 L204.7573,93.0789 Z" id="Fill-22" fill="#B1AEAE" mask="url(#mask-4)"></path>
                        <path d="M243.0874,93.4796 L243.0874,71.0136 L251.5144,71.0136 L251.5144,73.5216 C250.8184,75.8626 250.0944,77.9686 249.3364,79.8396 C251.2304,81.5796 252.1454,83.6186 252.0824,85.9586 C252.1454,88.7006 251.0084,90.1696 248.6734,90.3716 C248.3574,90.3716 247.9164,90.4056 247.3484,90.4706 L246.4014,90.4706 C246.4014,89.7366 246.2434,88.8336 245.9274,87.7626 L247.9164,87.7626 C249.1144,87.8306 249.6834,87.1276 249.6204,85.6576 C249.6204,83.8516 248.6734,82.0456 246.7794,80.2416 C247.6634,78.0346 248.4514,75.7626 249.1474,73.4206 L245.4544,73.4206 L245.4544,93.4796 L243.0874,93.4796 Z M238.4474,73.3216 L235.1334,73.3216 C235.0694,74.5246 235.0384,75.6956 235.0384,76.8316 L238.4474,76.8316 L238.4474,73.3216 Z M238.3524,82.8486 C238.3524,81.6456 238.3834,80.4416 238.4474,79.2386 L235.0384,79.2386 L234.9434,82.5476 L234.9434,82.6486 C234.8804,82.7156 234.8494,82.7836 234.8494,82.8486 L238.3524,82.8486 Z M229.6414,79.2386 L229.6414,76.8316 L232.6714,76.8316 L232.6714,73.3216 L229.8304,73.3216 L229.8304,70.9146 L240.9094,70.9146 C240.9094,75.9286 240.8144,81.9806 240.6254,89.0666 C240.6254,91.4736 239.5834,92.6776 237.5004,92.6776 C237.1844,92.6776 236.6794,92.7096 235.9854,92.7776 L234.5654,92.7776 C234.4384,91.7746 234.2484,90.9376 233.9974,90.2706 C234.8164,90.3376 235.6374,90.3716 236.4594,90.3716 C237.5954,90.4386 238.1944,89.7686 238.2574,88.3656 L238.3524,85.1556 L234.6594,85.1556 C234.4064,88.4326 233.2394,91.2396 231.1564,93.5806 C230.7774,93.1786 230.1144,92.5776 229.1684,91.7746 C230.9984,89.8356 232.0394,87.6296 232.2924,85.1556 L229.5464,85.1556 L229.5464,82.8486 L232.4824,82.8486 L232.4824,82.4476 C232.5444,81.5116 232.5764,80.4416 232.5764,79.2386 L229.6414,79.2386 Z" id="Fill-23" fill="#B1AEAE" mask="url(#mask-4)"></path>
                        <path d="M264.846,93.48 L267.687,93.48 L267.687,78.637 L264.846,78.637 L264.846,93.48 Z M276.115,81.946 C271.885,79.539 268.634,76.598 266.362,73.12 C263.961,76.731 260.617,79.84 256.325,82.447 C256.261,82.315 256.103,82.081 255.851,81.745 C255.283,80.81 254.904,80.175 254.715,79.84 C259.828,76.899 263.394,73.421 265.415,69.409 L268.445,69.71 C268.255,70.111 268.034,70.48 267.782,70.814 C270.18,74.359 273.526,77.199 277.819,79.339 C277.376,79.874 276.809,80.742 276.115,81.946 L276.115,81.946 Z" id="Fill-24" fill="#B1AEAE" mask="url(#mask-4)"></path>
                        <path d="M284.049,89.669 L287.553,89.669 L287.553,85.857 L284.049,85.857 L284.049,89.669 Z M284.049,79.238 L287.553,79.238 L287.553,75.426 L284.049,75.426 L284.049,79.238 Z" id="Fill-25" fill="#B1AEAE" mask="url(#mask-4)"></path>
                        <path d="M14.2979,127.713 L14.2979,105.047 L22.7259,105.047 L22.7259,107.454 L20.3579,114.274 C22.2519,116.014 23.1669,118.02 23.1039,120.291 C23.1669,123.1 22.0629,124.571 19.7899,124.704 C19.0329,124.772 18.3059,124.805 17.6119,124.805 C17.5479,123.937 17.3899,123.034 17.1389,122.097 C17.4539,122.164 18.0859,122.197 19.0329,122.197 C20.1689,122.197 20.7369,121.495 20.7369,120.091 C20.7369,118.486 19.8209,116.649 17.9909,114.575 L20.1689,107.454 L16.6649,107.454 L16.6649,127.713 L14.2979,127.713 Z M4.7349,124.203 L9.9429,124.203 L9.9429,121.996 L4.7349,121.996 L4.7349,124.203 Z M4.7349,119.99 L9.9429,119.99 L9.9429,117.784 L4.7349,117.784 L4.7349,119.99 Z M1.3259,108.859 L1.3259,106.752 L4.8289,106.752 L4.8289,103.743 L7.1019,103.743 L7.1019,106.752 L10.1319,106.752 L10.1319,108.859 L7.1019,108.859 L7.1019,111.365 L8.2379,111.365 C9.6899,109.761 10.9839,107.955 12.1199,105.949 L14.0139,107.053 C13.0039,108.657 11.9929,110.096 10.9839,111.365 L13.3509,111.365 L13.3509,113.472 L9.1849,113.472 C8.4269,114.274 7.6699,115.011 6.9119,115.678 L12.2149,115.678 L12.2149,127.412 L9.9429,127.412 L9.9429,126.109 L4.7349,126.109 L4.7349,127.412 L2.4619,127.412 L2.4619,119.088 L0.7569,120.192 C0.6939,119.99 0.5989,119.69 0.4729,119.288 C0.2839,118.621 0.1259,118.119 -0.0001,117.784 C2.2729,116.581 4.2919,115.144 6.0599,113.472 L0.3789,113.472 L0.3789,111.365 L4.8289,111.365 L4.8289,108.859 L1.3259,108.859 Z" id="Fill-26" fill="#B1AEAE" mask="url(#mask-4)"></path>
                        <path d="M26.0205,109.5607 L26.0205,107.0527 L36.1525,107.0527 C36.0885,106.8527 35.9625,106.5187 35.7735,106.0497 C35.4575,105.1147 35.2055,104.4457 35.0165,104.0437 L37.8565,103.6427 C37.9825,103.9787 38.1415,104.4457 38.3305,105.0467 C38.7085,105.9167 38.9605,106.5857 39.0875,107.0527 L48.3675,107.0527 L48.3675,109.5607 L38.5195,109.5607 L38.5195,112.8707 L46.8525,112.8707 L46.8525,121.4957 C46.9145,123.7687 45.8735,124.8707 43.7275,124.8047 C42.7175,124.8707 41.6445,124.9057 40.5085,124.9057 C40.4445,124.3027 40.2865,123.4677 40.0345,122.3977 C41.0435,122.4647 41.9285,122.4987 42.6865,122.4987 C43.8225,122.5657 44.3575,121.9967 44.2955,120.7927 L44.2955,115.3767 L38.5195,115.3767 L38.5195,127.7127 L35.8685,127.7127 L35.8685,115.3767 L30.2815,115.3767 L30.2815,125.2067 L27.6305,125.2067 L27.6305,112.8707 L35.8685,112.8707 L35.8685,109.5607 L26.0205,109.5607 Z" id="Fill-27" fill="#B1AEAE" mask="url(#mask-4)"></path>
                        <path d="M55.64,123.501 L69.559,123.501 L69.559,117.784 L55.64,117.784 L55.64,123.501 Z M55.64,115.276 L69.559,115.276 L69.559,109.66 L55.64,109.66 L55.64,115.276 Z M52.894,127.513 L52.894,107.053 L59.048,107.053 C59.427,105.85 59.742,104.713 59.995,103.643 L63.025,103.943 L62.079,107.053 L72.21,107.053 L72.21,127.513 L69.559,127.513 L69.559,125.908 L55.64,125.908 L55.64,127.513 L52.894,127.513 Z" id="Fill-28" fill="#B1AEAE" mask="url(#mask-4)"></path>
                        <path d="M86.5845,107.1534 L86.5845,104.8464 L99.4615,104.8464 L99.4615,107.1534 L94.0645,107.1534 L93.4965,109.8614 L98.6095,109.8614 L98.6095,121.4954 L96.4325,121.4954 L96.4325,112.1684 L89.6145,112.1684 L89.6145,121.6954 L87.4365,121.6954 L87.4365,109.8614 L91.0345,109.8614 L91.6035,107.1534 L86.5845,107.1534 Z M97.8525,127.6134 C96.1475,125.8074 94.5385,124.2704 93.0225,122.9994 C92.3275,124.4704 90.4345,126.1084 87.3415,127.9144 C86.8355,127.2454 86.3005,126.5434 85.7315,125.8074 C88.1935,124.6724 89.8035,123.5684 90.5615,122.4984 C91.3805,121.4284 91.7925,119.7574 91.7925,117.4834 L91.8865,113.4714 L94.1595,113.4714 L94.0645,117.3824 C94.0645,118.6544 93.9705,119.7904 93.7805,120.7934 C94.7895,121.6634 96.2095,122.8664 98.0415,124.4034 C98.7355,124.9374 99.2405,125.3394 99.5565,125.6074 L97.8525,127.6134 Z M82.0395,114.9754 C81.7865,114.5084 81.4075,113.8064 80.9025,112.8704 C80.5865,112.3354 80.3345,111.9014 80.1455,111.5664 L81.8495,110.5634 C82.7325,111.8344 83.4265,112.9374 83.9335,113.8734 L82.0395,114.9754 Z M83.3645,127.4124 C82.5435,126.5434 81.2175,125.2384 79.3875,123.5014 C78.5025,122.6324 77.8405,121.9644 77.3995,121.4954 L78.8195,119.8904 L81.4715,122.2974 L83.8385,117.8844 L77.2095,117.8844 L77.2095,115.5784 L86.3005,115.5784 L86.3005,117.9844 L83.0805,123.9024 L84.9745,125.6074 L83.3645,127.4124 Z M85.7315,112.3684 C85.4155,111.9664 85.0055,111.3994 84.5015,110.6634 C83.4905,109.1934 82.7025,108.0554 82.1335,107.2534 C80.7445,109.7274 79.1665,112.1014 77.3995,114.3744 C77.2715,113.8404 77.0205,113.1714 76.6415,112.3684 C76.5785,112.1684 76.5145,112.0024 76.4525,111.8674 C78.2195,109.6604 79.7665,106.9874 81.0925,103.8434 L83.5545,104.0444 L83.0805,105.0474 C84.8475,107.1204 86.2675,108.8924 87.3415,110.3624 L85.7315,112.3684 Z" id="Fill-29" fill="#B1AEAE" mask="url(#mask-4)"></path>
                        <path d="M111.9424,125.005 L110.0484,127.011 L104.9354,121.094 L106.7344,119.389 L111.9424,125.005 Z" id="Fill-30" fill="#B1AEAE" mask="url(#mask-4)"></path>
                        <path d="M137.49,107.856 L149.421,107.856 L149.421,105.348 L137.49,105.348 L137.49,107.856 Z M136.353,115.377 L136.353,112.77 L150.462,112.77 L150.462,115.377 L146.58,115.377 L146.58,123.501 C146.642,125.974 145.475,127.212 143.076,127.212 L139.194,127.212 C139.004,126.409 138.815,125.572 138.626,124.704 C139.32,124.772 140.456,124.805 142.035,124.805 C143.36,124.805 143.991,124.203 143.928,122.999 L143.928,115.377 L136.353,115.377 Z M128.967,112.368 C128.525,111.165 128.146,110.297 127.831,109.761 C130.104,107.89 131.998,105.85 133.513,103.643 L135.69,105.247 C133.418,108.056 131.176,110.43 128.967,112.368 L128.967,112.368 Z M128.305,120.693 C128.177,120.226 127.957,119.557 127.642,118.687 C127.578,118.42 127.515,118.22 127.453,118.085 C129.661,116.147 131.745,113.572 133.702,110.362 L135.785,111.867 C135.343,112.669 134.616,113.739 133.607,115.076 C133.543,115.144 133.48,115.211 133.418,115.276 L133.418,127.713 L130.861,127.713 L130.861,118.186 C130.104,119.055 129.251,119.891 128.305,120.693 L128.305,120.693 Z" id="Fill-31" fill="#B1AEAE" mask="url(#mask-4)"></path>
                        <path d="M171.4644,119.6896 L169.0974,118.5866 C170.0444,116.4476 171.3374,113.0706 172.9794,108.4576 L175.3464,109.3596 C173.8314,113.5056 172.5374,116.9496 171.4644,119.6896 L171.4644,119.6896 Z M157.1664,119.6896 C155.9664,115.9466 154.7984,112.4686 153.6624,109.2586 L155.9354,108.4576 C157.5754,112.9376 158.7764,116.3796 159.5334,118.7876 L157.1664,119.6896 Z M153.1894,126.4096 L153.1894,123.9026 L160.0064,123.9026 L160.0064,104.0436 L162.6584,104.0436 L162.6584,123.9026 L166.2564,123.9026 L166.2564,104.0436 L168.8134,104.0436 L168.8134,123.9026 L175.7254,123.9026 L175.7254,126.4096 L153.1894,126.4096 Z" id="Fill-32" fill="#B1AEAE" mask="url(#mask-4)"></path>
                        <path d="M190.383,121.897 L197.769,121.897 L197.769,120.292 L190.383,120.292 L190.383,121.897 Z M190.383,118.687 L197.769,118.687 L197.769,117.083 L190.383,117.083 L190.383,118.687 Z M188.11,127.613 L188.11,115.377 L200.136,115.377 L200.136,124.303 C200.198,126.375 199.251,127.412 197.295,127.412 L194.265,127.412 C194.202,127.145 194.076,126.676 193.886,126.008 C193.823,125.673 193.759,125.44 193.697,125.307 C194.327,125.372 195.243,125.406 196.443,125.406 C197.39,125.473 197.831,125.038 197.769,124.103 L197.769,123.602 L190.383,123.602 L190.383,127.613 L188.11,127.613 Z M187.731,107.454 L187.731,105.749 L192.939,105.749 L192.939,103.643 L195.212,103.643 L195.212,105.749 L200.988,105.749 L200.988,107.454 L195.212,107.454 L195.212,108.958 L200.42,108.958 L200.42,110.663 L195.212,110.663 L195.212,112.168 L201.367,112.168 L201.367,113.973 L187.353,113.973 L187.353,112.168 L192.939,112.168 L192.939,110.663 L188.11,110.663 L188.11,108.958 L192.939,108.958 L192.939,107.454 L187.731,107.454 Z M185.648,111.265 L184.228,110.663 C184.796,108.926 185.332,107.288 185.838,105.749 L187.353,106.25 C186.974,107.454 186.406,109.126 185.648,111.265 L185.648,111.265 Z M179.872,111.265 C179.809,110.932 179.683,110.463 179.494,109.861 C179.115,108.391 178.767,107.188 178.452,106.25 L179.872,105.749 C180.502,107.488 181.008,109.126 181.387,110.663 L179.872,111.265 Z M185.933,121.596 C185.301,120.66 184.638,119.69 183.944,118.687 L183.944,127.513 L181.766,127.513 L181.766,118.987 C181.134,120.993 180.251,122.799 179.115,124.403 C179.051,124.002 178.893,123.401 178.641,122.599 C178.514,122.064 178.419,121.695 178.357,121.495 C179.745,119.69 180.819,117.45 181.577,114.776 L178.641,114.776 L178.641,112.469 L181.766,112.469 L181.766,103.844 L183.944,103.844 L183.944,112.469 L186.69,112.469 L186.69,114.776 L183.944,114.776 L183.944,117.484 L184.891,116.681 C186.089,118.085 187.005,119.223 187.637,120.091 L185.933,121.596 Z" id="Fill-33" fill="#B1AEAE" mask="url(#mask-4)"></path>
                        <path d="M216.6875,114.2736 C216.6875,114.8096 216.6555,115.5446 216.5925,116.4806 L216.5925,118.2856 L221.4225,118.2856 L221.4225,114.2736 L216.6875,114.2736 Z M213.9415,118.2856 C214.0035,117.3496 214.0365,116.0136 214.0365,114.2736 L209.2075,114.2736 L209.2075,118.2856 L213.9415,118.2856 Z M204.1885,108.5576 L204.1885,106.2506 L209.5855,106.2506 L209.5855,103.6426 L212.1425,103.6426 L212.1425,106.2506 L218.5815,106.2506 L218.5815,103.6426 L221.0435,103.6426 L221.0435,106.2506 L226.6295,106.2506 L226.6295,108.5576 L221.0435,108.5576 L221.0435,110.5636 L218.5815,110.5636 L218.5815,108.5576 L212.1425,108.5576 L212.1425,110.5636 L209.5855,110.5636 L209.5855,108.5576 L204.1885,108.5576 Z M225.4935,127.5126 C220.1275,126.6426 216.7495,124.9056 215.3615,122.2966 C214.1625,124.6386 210.8165,126.4756 205.3245,127.8136 C205.1975,127.4786 204.9465,126.9766 204.5675,126.3096 C204.2505,125.8406 204.0305,125.4726 203.9045,125.2066 C209.2075,124.4706 212.4265,122.9336 213.5625,120.5926 L204.0935,120.5926 L204.0935,118.2856 L206.7455,118.2856 L206.7455,112.0676 L214.1305,112.0676 L214.1305,109.8616 L216.6875,109.8616 L216.6875,112.0676 L223.9785,112.0676 L223.9785,118.2856 L226.6295,118.2856 L226.6295,120.5926 L217.0665,120.5926 C218.4545,123.1336 221.6735,124.5386 226.7245,124.8046 C226.2825,125.7406 225.8725,126.6426 225.4935,127.5126 L225.4935,127.5126 Z" id="Fill-34" fill="#B1AEAE" mask="url(#mask-4)"></path>
                        <path d="M239.2051,125.005 L237.3111,127.011 L232.1981,121.094 L233.9971,119.389 L239.2051,125.005 Z" id="Fill-35" fill="#B1AEAE" mask="url(#mask-4)"></path>
                        <path d="M266.1724,118.9874 C268.5074,116.7164 270.0224,113.8064 270.7174,110.2614 L261.6274,110.2614 C262.3844,113.6724 263.9004,116.5814 266.1724,118.9874 L266.1724,118.9874 Z M254.9984,110.2614 L254.9984,107.6544 L265.5094,107.6544 C265.1304,106.4514 264.6884,105.2824 264.1844,104.1444 L267.1194,103.6424 C267.3094,104.3114 267.6234,105.2824 268.0664,106.5514 C268.2554,107.0194 268.3814,107.3874 268.4444,107.6544 L277.4404,107.6544 L277.4404,110.2614 L273.5584,110.2614 C272.6104,114.4744 270.8744,117.9844 268.3504,120.7934 C270.8124,122.5324 273.9044,123.8694 277.6294,124.8044 C277.0624,125.5404 276.5254,126.3754 276.0204,127.3124 C271.7904,125.9734 268.5074,124.4384 266.1724,122.6984 C264.2784,124.1704 261.0594,125.8074 256.5144,127.6134 C256.1354,126.8764 255.5984,125.9734 254.9034,124.9054 C258.6924,123.8364 261.7834,122.4654 264.1844,120.7934 C261.5944,117.9844 259.8274,114.4744 258.8814,110.2614 L254.9984,110.2614 Z" id="Fill-36" fill="#B1AEAE" mask="url(#mask-4)"></path>
                        <path d="M286.7954,127.0109 C283.7014,127.0109 282.1554,126.0409 282.1554,124.1029 C282.0924,122.8999 282.8504,121.6959 284.4284,120.4919 C286.7634,118.8219 289.9204,116.9819 293.8984,114.9759 L282.9134,114.9759 L282.9134,112.4689 L299.1054,112.4689 L299.1054,115.0759 C293.0454,118.0849 288.7514,120.4919 286.2284,122.2969 C285.5324,122.8329 285.1864,123.2999 285.1864,123.7009 C285.1864,124.3029 285.8804,124.6389 287.2694,124.7039 L295.8864,124.7039 C298.3484,124.7719 299.6414,124.0699 299.7684,122.5989 C300.0204,121.5299 300.1784,120.3259 300.2414,118.9879 C301.5674,119.4559 302.4504,119.7569 302.8934,119.8909 C302.8294,120.3589 302.7344,120.9929 302.6084,121.7959 C302.4194,122.9989 302.2924,123.7689 302.2304,124.1029 C301.7874,126.1089 299.7994,127.0769 296.2654,127.0109 L286.7954,127.0109 Z M280.3574,109.0589 L280.3574,106.5519 L286.1334,106.5519 L286.1334,103.6429 L288.7844,103.6429 L288.7844,106.5519 L294.5604,106.5519 L294.5604,103.6429 L297.2114,103.6429 L297.2114,106.5519 L303.0824,106.5519 L303.0824,109.0589 L297.2114,109.0589 L297.2114,111.1649 L294.5604,111.1649 L294.5604,109.0589 L288.7844,109.0589 L288.7844,111.1649 L286.1334,111.1649 L286.1334,109.0589 L280.3574,109.0589 Z" id="Fill-37" fill="#B1AEAE" mask="url(#mask-4)"></path>
                        <path d="M311.017,121.796 L323.327,121.796 L323.327,120.291 L311.017,120.291 L311.017,121.796 Z M311.017,118.587 L323.327,118.587 L323.327,116.982 L311.017,116.982 L311.017,118.587 Z M308.555,127.613 L308.555,115.276 L325.789,115.276 L325.789,124.303 C325.851,126.242 324.842,127.277 322.759,127.412 L318.782,127.412 C318.655,127.145 318.498,126.575 318.308,125.707 C318.245,125.507 318.214,125.339 318.214,125.206 C319.034,125.272 320.203,125.307 321.717,125.307 C322.854,125.372 323.389,124.938 323.327,124.002 L323.327,123.501 L311.017,123.501 L311.017,127.613 L308.555,127.613 Z M306.472,107.354 L306.472,105.649 L315.846,105.649 L315.846,103.643 L318.403,103.643 L318.403,105.649 L327.873,105.649 L327.873,107.354 L318.403,107.354 L318.403,108.859 L326.641,108.859 L326.641,110.564 L318.403,110.564 L318.403,112.068 L328.345,112.068 L328.345,113.773 L305.904,113.773 L305.904,112.068 L315.846,112.068 L315.846,110.564 L307.609,110.564 L307.609,108.859 L315.846,108.859 L315.846,107.354 L306.472,107.354 Z" id="Fill-38" fill="#B1AEAE" mask="url(#mask-4)"></path>
                        <path d="M337.323,119.69 L342.909,119.69 L342.909,115.077 L337.323,115.077 L337.323,119.69 Z M332.872,114.274 C332.745,114.073 332.555,113.773 332.304,113.371 C332.115,113.037 331.797,112.536 331.357,111.867 C333.629,109.728 335.428,106.987 336.754,103.643 L339.595,103.943 C339.216,104.814 338.837,105.616 338.458,106.351 L353.135,106.351 L353.135,108.758 L345.465,108.758 L345.465,112.669 L352.567,112.669 L352.567,115.076 L345.465,115.076 L345.465,119.69 L354.083,119.69 L354.083,122.197 L345.465,122.197 L345.465,127.713 L342.909,127.713 L342.909,122.197 L331.262,122.197 L331.262,119.69 L334.766,119.69 L334.766,112.669 L342.909,112.669 L342.909,108.758 L337.133,108.758 C336.059,110.564 334.638,112.402 332.872,114.274 L332.872,114.274 Z" id="Fill-39" fill="#B1AEAE" mask="url(#mask-4)"></path>
                        <path d="M366.4683,125.005 L364.5733,127.011 L359.4603,121.094 L361.2603,119.389 L366.4683,125.005 Z" id="Fill-40" fill="#B1AEAE" mask="url(#mask-4)"></path>
                        <path d="M397.5073,127.3126 C397.3803,126.5096 397.2233,125.6726 397.0333,124.8046 L399.9693,124.8046 C401.0413,124.8046 401.5463,124.2706 401.4843,123.2006 L401.4843,103.7436 L403.9453,103.7436 L403.9453,123.9026 C404.0713,126.1086 403.0613,127.2456 400.9153,127.3126 L397.5073,127.3126 Z M396.4653,121.5966 L398.8323,121.5966 L398.8323,106.4516 L396.4653,106.4516 L396.4653,121.5966 Z M389.3633,106.9526 C388.2283,108.8926 386.8073,110.6636 385.1033,112.2676 L394.0033,112.2676 C393.4973,111.6006 392.7393,110.6986 391.7313,109.5606 C390.7203,108.4236 389.9323,107.5546 389.3633,106.9526 L389.3633,106.9526 Z M394.1933,112.4686 L394.0033,112.3686 C394.0033,114.1076 393.9403,115.9136 393.8143,117.7846 C393.7503,119.8576 392.7733,120.9276 390.8783,120.9936 L388.2283,121.0936 C388.1633,120.7596 388.0383,120.1586 387.8493,119.2886 C387.7853,119.0226 387.7543,118.8216 387.7543,118.6866 C388.6373,118.7536 389.3953,118.7876 390.0273,118.7876 C390.9733,118.8546 391.5093,118.3206 391.6363,117.1826 L391.6363,116.1796 C391.6983,115.4446 391.7313,114.9106 391.7313,114.5756 L386.5233,114.5756 L386.5233,123.0996 C386.4593,124.2376 386.9963,124.8046 388.1333,124.8046 L391.1623,124.8046 C392.2363,124.8046 392.8673,124.3716 393.0573,123.5006 C393.0573,123.3676 393.0873,123.1666 393.1523,122.8996 C393.2133,122.6986 393.3083,122.0966 393.4353,121.0936 C393.5613,121.1616 393.7813,121.2286 394.0983,121.2936 C394.4773,121.4956 395.0453,121.6956 395.8033,121.8966 C395.7383,122.4316 395.5803,123.1666 395.3293,124.1026 C395.2663,124.4386 395.2013,124.6716 395.1403,124.8046 C394.7613,126.3416 393.5613,127.0776 391.5413,127.0106 L387.5653,127.0106 C385.2293,127.0776 384.0923,125.9086 384.1553,123.5006 L384.1553,113.1706 C384.0923,113.2386 383.9663,113.3376 383.7773,113.4716 C383.6503,113.6066 383.3653,113.8396 382.9253,114.1736 C382.6083,113.3056 382.2623,112.5026 381.8833,111.7666 C384.7863,109.6276 386.9643,106.9196 388.4163,103.6426 L390.9733,103.8436 C390.9093,103.9786 390.8463,104.1446 390.7843,104.3446 C390.6563,104.6136 390.5623,104.8136 390.5003,104.9466 C391.5723,105.9496 392.9623,107.3876 394.6663,109.2586 C395.2353,109.8616 395.6443,110.2966 395.8973,110.5636 L394.1933,112.4686 Z" id="Fill-41" fill="#B1AEAE" mask="url(#mask-4)"></path>
                        <path d="M423.4331,112.4689 L415.3841,112.4689 C416.5211,113.6719 417.7831,114.5749 419.1721,115.1769 C420.8131,114.4419 422.2331,113.5389 423.4331,112.4689 L423.4331,112.4689 Z M413.5851,124.8049 L424.4751,124.8049 L424.4751,121.9959 L413.5851,121.9959 L413.5851,124.8049 Z M411.1231,127.7129 L411.1231,119.8909 L426.9371,119.8909 L426.9371,127.7129 L424.4751,127.7129 L424.4751,126.7099 L413.5851,126.7099 L413.5851,127.7129 L411.1231,127.7129 Z M427.1261,111.2649 L427.1261,108.3569 L410.9341,108.3569 L410.9341,111.1649 L408.4721,111.1649 L408.4721,106.2499 L417.8461,106.2499 C417.6571,105.3819 417.4681,104.5459 417.2791,103.7429 L420.1191,103.5429 C420.2451,104.0109 420.4341,104.9139 420.6871,106.2499 L429.4941,106.2499 L429.4941,111.2649 L427.1261,111.2649 Z M408.2831,119.9899 C408.1561,119.5899 407.9661,118.9879 407.7141,118.1859 C407.6511,117.9849 407.5871,117.8189 407.5251,117.6839 C410.9341,117.4169 413.9011,116.9159 416.4261,116.1799 C415.4151,115.5119 414.4381,114.6749 413.4911,113.6719 C412.6061,114.4079 411.5021,115.1769 410.1761,115.9789 C409.7981,115.3769 409.3251,114.7759 408.7561,114.1739 C411.6591,112.5699 413.7751,110.7979 415.1001,108.8589 L417.6571,109.1589 C417.2791,109.6959 416.9611,110.0959 416.7101,110.3629 L426.5581,110.3629 L426.5581,112.5699 C425.1681,114.0399 423.6541,115.2439 422.0131,116.1799 C423.4641,116.6489 426.1791,116.9819 430.1561,117.1829 C429.8391,117.9849 429.5881,118.7869 429.3991,119.5899 C424.5371,119.1219 421.0971,118.4529 419.0781,117.5839 C416.6771,118.5869 413.0791,119.3889 408.2831,119.9899 L408.2831,119.9899 Z" id="Fill-42" fill="#B1AEAE" mask="url(#mask-4)"></path>
                        <path d="M436.1978,113.8732 C435.5028,113.3382 434.7768,112.8372 434.0198,112.3682 C435.7238,110.0962 436.9858,107.4212 437.8068,104.3452 L440.3638,104.7462 C439.9848,105.9492 439.6058,107.0532 439.2268,108.0562 L443.6778,108.0562 L443.6778,103.7432 L446.3298,103.7432 L446.3298,108.0562 L454.2838,108.0562 L454.2838,110.5632 L446.3298,110.5632 L446.3298,114.7752 L455.7038,114.7752 L455.7038,117.3832 L448.6018,117.3832 L448.6018,123.2002 C448.5388,124.2702 449.0108,124.7712 450.0218,124.7042 L451.7268,124.7042 C452.6738,124.7042 453.1778,124.2372 453.2418,123.3002 C453.4308,122.3642 453.5568,121.3292 453.6208,120.1912 C453.7468,120.2592 453.9048,120.3262 454.0938,120.3922 C454.9768,120.7272 455.6088,120.9612 455.9878,121.0942 C455.9248,122.4322 455.7658,123.5352 455.5138,124.4032 C455.1978,126.2092 454.0298,127.0772 452.0108,127.0112 L449.0758,127.0112 C446.9278,127.0772 445.8868,126.0412 445.9508,123.9022 L445.9508,117.3832 L441.9728,117.3832 L441.9728,117.9842 C441.9728,122.4652 439.5108,125.7072 434.5878,127.7132 C434.0818,126.9772 433.5468,126.1422 432.9778,125.2062 C437.2068,123.9362 439.3218,121.5292 439.3218,117.9842 L439.3218,117.3832 L433.2618,117.3832 L433.2618,114.7752 L443.6778,114.7752 L443.6778,110.5632 L438.0918,110.5632 C437.5858,111.7672 436.9548,112.8702 436.1978,113.8732" id="Fill-43" fill="#B1AEAE" mask="url(#mask-4)"></path>
                        <path d="M476.895,107.6544 L470.93,107.6544 L470.835,107.7554 C471.718,108.8254 472.666,109.6954 473.675,110.3624 C474.874,109.6284 475.949,108.7244 476.895,107.6544 L476.895,107.6544 Z M467.142,117.6834 L467.142,115.7784 L472.445,115.7784 L472.445,114.1744 L474.812,114.1744 L474.812,115.7784 L480.115,115.7784 L480.115,117.6834 L474.812,117.6834 L474.812,119.2884 L479.736,119.2884 L479.736,121.0934 L474.812,121.0934 L474.812,122.7994 L480.967,122.7994 L480.967,124.7044 L474.812,124.7044 L474.812,127.7134 L472.445,127.7134 L472.445,124.7044 L466.479,124.7044 L466.479,122.7994 L472.445,122.7994 L472.445,121.0934 L467.521,121.0934 L467.521,119.2884 L472.445,119.2884 L472.445,117.6834 L467.142,117.6834 Z M480.399,114.6754 C477.558,114.2084 475.317,113.5724 473.675,112.7694 C472.034,113.6394 469.793,114.3744 466.953,114.9754 C466.889,114.7104 466.731,114.3414 466.479,113.8734 C466.29,113.3384 466.131,112.9694 466.005,112.7694 C468.151,112.4354 469.983,112.0024 471.498,111.4664 C470.741,110.8644 470.045,110.1624 469.415,109.3594 C468.909,109.8954 468.279,110.4634 467.521,111.0644 C467.205,110.3964 466.794,109.7604 466.29,109.1594 L461.839,109.1594 C461.523,109.9614 461.082,110.7984 460.514,111.6664 L465.533,111.6664 L465.533,113.8734 L463.355,113.8734 L463.355,116.5814 L466.1,116.5814 L466.1,118.7874 L463.355,118.7874 L463.355,123.7014 L465.722,121.6954 C465.722,122.0964 465.784,122.6664 465.912,123.4004 C465.973,123.7364 466.005,124.0024 466.005,124.2034 C464.996,124.8044 463.922,125.6074 462.787,126.6104 C462.723,126.7434 462.564,126.9114 462.313,127.1114 C462.124,127.3124 461.965,127.4454 461.839,127.5124 L460.514,125.5074 C460.955,125.0384 461.144,124.3714 461.082,123.5014 L461.082,118.7874 L458.43,118.7874 L458.43,116.5814 L461.082,116.5814 L461.082,113.8734 L459.756,113.8734 L459.756,113.0704 L459.567,113.2704 C459.44,113.0054 459.25,112.6364 458.999,112.1684 C458.682,111.6334 458.461,111.2644 458.336,111.0644 C459.662,108.8584 460.67,106.4184 461.366,103.7434 L463.733,104.1444 C463.606,104.5464 463.416,105.1144 463.166,105.8494 C462.976,106.3174 462.848,106.6864 462.787,106.9524 L466.384,106.9524 L466.384,109.1594 C468.214,107.6894 469.666,105.8494 470.741,103.6424 L473.203,103.9434 C473.138,104.1444 472.98,104.4124 472.729,104.7464 C472.54,105.1474 472.381,105.4484 472.255,105.6484 L479.546,105.6484 L479.546,107.7554 C478.536,109.2264 477.369,110.4634 476.042,111.4664 C477.431,111.9344 479.167,112.3024 481.25,112.5694 C481.187,112.7694 480.998,113.2384 480.683,113.9724 C480.555,114.3084 480.46,114.5424 480.399,114.6754 L480.399,114.6754 Z" id="Fill-44" fill="#B1AEAE" mask="url(#mask-4)"></path>
                        <path d="M15.2451,150.0118 C14.3601,149.2088 13.4461,148.4748 12.4991,147.8058 L13.8251,146.4018 C14.2661,146.7368 14.8661,147.1708 15.6231,147.7048 C16.0021,148.0398 16.3171,148.3068 16.5711,148.5068 L15.2451,150.0118 Z M10.5101,146.3008 L10.0371,150.1128 L18.8431,150.1128 C18.8431,148.1068 18.8741,146.8368 18.9381,146.3008 L10.5101,146.3008 Z M18.6541,156.1298 C18.7161,155.3948 18.7481,154.1238 18.7481,152.3188 L9.8481,152.3188 L9.3741,156.1298 L14.9611,156.1298 C14.6441,155.8638 14.1711,155.4948 13.5401,155.0268 C12.9721,154.5598 12.5301,154.1918 12.2151,153.9228 L13.5401,152.5188 C13.7301,152.6538 14.0451,152.8878 14.4871,153.2208 C15.2451,153.7568 15.8751,154.2238 16.3811,154.6248 L15.0561,156.1298 L18.6541,156.1298 Z M7.0071,146.6018 C6.9431,146.5358 6.8801,146.4358 6.8171,146.3008 C6.4391,145.8338 5.9651,145.2978 5.3971,144.6968 C7.3531,142.7578 8.8681,140.4508 9.9421,137.7768 L12.5941,138.0768 C12.2151,138.7458 11.8981,139.3808 11.6461,139.9828 L22.7251,139.9828 L22.7251,142.1888 L10.4151,142.1888 C10.2881,142.3898 10.0681,142.6908 9.7531,143.0918 C9.5001,143.5598 9.2791,143.8938 9.0901,144.0948 L21.3051,144.0948 L21.3051,145.8998 C21.2411,147.6388 21.2101,149.0428 21.2101,150.1128 L23.1991,150.1128 L23.1991,152.3188 L21.1161,152.3188 L21.0211,156.1298 L22.7251,156.1298 L22.7251,158.3358 L20.9261,158.3358 C20.8631,160.6088 19.6001,161.7458 17.1391,161.7458 L13.5401,161.7458 C13.3511,161.0768 13.1621,160.3748 12.9721,159.6398 L14.5821,159.6398 C15.3391,159.7058 15.9391,159.7408 16.3811,159.7408 C17.7071,159.8058 18.4321,159.3388 18.5591,158.3358 L6.8171,158.3358 L7.4801,152.3188 L5.4921,152.3188 L5.4921,150.1128 L7.7651,150.1128 L8.2381,145.1978 C7.8591,145.5988 7.4481,146.0678 7.0071,146.6018 L7.0071,146.6018 Z M4.4501,143.2918 C4.1971,143.0918 3.8181,142.7578 3.3141,142.2888 C2.8711,141.8228 2.0501,141.0858 0.8521,140.0828 L2.4621,138.1768 C3.1561,138.7798 4.3871,139.8168 6.1551,141.2858 L4.4501,143.2918 Z M3.0301,161.8468 L0.5681,161.1448 C1.4511,157.9348 2.1781,154.9608 2.7461,152.2178 C3.5031,152.5538 4.3231,152.8208 5.2081,153.0208 C4.1971,157.0328 3.4711,159.9738 3.0301,161.8468 L3.0301,161.8468 Z M3.7871,149.9108 C2.7131,148.8428 1.5151,147.7728 0.1891,146.7018 L1.7991,144.8968 C3.1241,145.8998 4.3551,146.9028 5.4921,147.9058 L3.7871,149.9108 Z" id="Fill-45" fill="#B1AEAE" mask="url(#mask-4)"></path>
                        <path d="M34.9214,159.7404 L34.9214,157.4334 L44.8634,157.4334 L44.8634,150.8144 L36.2474,150.8144 L36.2474,148.3064 L44.8634,148.3064 L44.8634,142.2894 L35.8684,142.2894 L35.8684,139.7824 L47.5154,139.7824 L47.5154,161.1444 L44.8634,161.1444 L44.8634,159.7404 L34.9214,159.7404 Z M29.4294,162.0474 C29.2404,161.8464 28.8924,161.5114 28.3874,161.0444 C27.8814,160.5754 27.5674,160.2744 27.4414,160.1414 C29.3354,158.4704 30.5334,156.8664 31.0394,155.3274 C31.6074,153.8574 31.8914,151.3154 31.8914,147.7054 L31.8914,138.0774 L34.4484,138.0774 L34.4484,147.7054 C34.4484,151.6504 34.1004,154.5594 33.4064,156.4304 C32.7754,158.3034 31.4494,160.1744 29.4294,162.0474 L29.4294,162.0474 Z M26.8734,155.3274 L29.3354,155.3274 L29.3354,140.3844 L26.8734,140.3844 L26.8734,155.3274 Z" id="Fill-46" fill="#B1AEAE" mask="url(#mask-4)"></path>
                        <path d="M72.5889,150.714 C70.8849,148.976 69.1799,147.371 67.4759,145.9 L68.9909,144.295 C70.1899,145.298 71.7679,146.702 73.7259,148.507 C73.8509,148.642 73.9459,148.742 74.0089,148.809 L72.5889,150.714 Z M59.7119,143.794 L59.7119,141.387 L65.5819,141.387 C65.3289,140.384 65.0139,139.348 64.6349,138.277 L67.0969,137.876 L68.1389,141.387 L73.7259,141.387 L73.7259,143.794 L59.7119,143.794 Z M60.2789,151.015 C59.8369,150.347 59.3639,149.711 58.8589,149.11 C60.4359,147.84 62.0459,146.235 63.6889,144.295 L65.3929,145.9 C63.5609,147.973 61.8569,149.678 60.2789,151.015 L60.2789,151.015 Z M72.6839,161.546 C70.2839,160.543 68.1699,159.372 66.3389,158.035 C64.8869,159.305 62.6139,160.609 59.5219,161.946 C59.1429,161.145 58.6699,160.342 58.1019,159.54 C60.8789,158.672 63.0569,157.568 64.6349,156.23 C63.4349,154.76 62.3939,152.855 61.5099,150.513 L63.5939,149.61 C64.4129,151.551 65.3289,153.155 66.3389,154.425 C67.2869,153.356 68.1389,151.684 68.8959,149.41 L71.1689,150.212 C70.3479,152.754 69.3059,154.76 68.0439,156.23 C69.4959,157.434 71.5469,158.403 74.1989,159.139 C74.0719,159.404 73.8199,159.806 73.4419,160.342 C73.1249,160.876 72.8729,161.277 72.6839,161.546 L72.6839,161.546 Z M51.3789,145.098 L51.3789,142.691 L54.1249,142.691 L54.1249,137.876 L56.4919,137.876 L56.4919,142.691 L58.7639,142.691 L58.7639,145.098 L56.4919,145.098 L56.4919,147.404 C56.5539,147.472 56.6489,147.571 56.7759,147.705 C57.4699,148.307 58.3219,149.076 59.3329,150.012 L58.0069,152.118 L56.4919,150.313 L56.4919,161.946 L54.1249,161.946 L54.1249,150.413 C53.4289,152.486 52.6099,154.392 51.6629,156.13 C51.5989,155.796 51.4729,155.227 51.2839,154.425 C51.1569,153.557 51.0309,152.955 50.9049,152.619 C52.1039,150.681 53.1449,148.174 54.0299,145.098 L51.3789,145.098 Z" id="Fill-47" fill="#B1AEAE" mask="url(#mask-4)"></path>
                        <path d="M94.1597,149.5099 L86.2057,149.5099 C87.2147,151.8519 88.4777,153.7229 89.9927,155.1269 C91.8867,153.5219 93.2747,151.6509 94.1597,149.5099 M98.0417,161.8469 C94.8847,161.0439 92.2017,159.9059 89.9927,158.4369 C87.8467,159.8409 85.1317,161.0439 81.8497,162.0469 C81.6597,161.6459 81.2177,160.8439 80.5237,159.6399 C80.4607,159.5729 80.4297,159.5049 80.4297,159.4399 C83.2697,158.9059 85.7637,157.9699 87.9097,156.6309 C86.3947,155.0269 85.0697,152.9199 83.9327,150.3129 L85.3537,149.5099 L84.1227,149.5099 C82.7327,153.6559 80.5867,157.4339 77.6837,160.8439 C77.4307,160.2409 77.0207,159.3719 76.4527,158.2359 C79.6087,154.4919 81.7547,149.6779 82.8907,143.7939 L77.1157,143.7939 L77.1157,141.2859 L83.3647,141.2859 C83.4267,140.8849 83.5217,140.2829 83.6487,139.4809 C83.7107,138.8139 83.7747,138.2779 83.8387,137.8759 L86.4897,137.9769 C86.4257,138.3119 86.3627,138.8139 86.3007,139.4809 C86.1727,140.2829 86.0777,140.8849 86.0157,141.2859 L99.2727,141.2859 L99.2727,143.7939 L85.5427,143.7939 C85.4157,144.4629 85.1947,145.3989 84.8797,146.6019 C84.8167,146.8029 84.7847,146.9699 84.7847,147.1039 L96.9997,147.1039 L96.9997,149.6109 C95.7367,152.5539 94.1267,154.9259 92.1707,156.7319 C94.0647,157.8019 96.4627,158.6049 99.3677,159.1389 C98.9247,159.8729 98.4827,160.7769 98.0417,161.8469" id="Fill-48" fill="#B1AEAE" mask="url(#mask-4)"></path>
                        <path d="M111.9424,159.2384 L110.0484,161.2444 L104.9354,155.3274 L106.7344,153.6224 L111.9424,159.2384 Z" id="Fill-49" fill="#B1AEAE" mask="url(#mask-4)"></path>
                        <path d="M141.1826,154.4249 C140.5506,153.1549 139.6676,151.4499 138.5316,149.3099 C138.3416,149.0429 138.2146,148.8429 138.1526,148.7079 L140.1406,147.5039 C140.3926,147.9729 140.8036,148.6749 141.3716,149.6109 C142.2546,151.0819 142.9176,152.2179 143.3606,153.0209 L141.1826,154.4249 Z M137.7736,145.3989 L137.7736,142.8909 L145.3486,142.8909 L145.3486,137.9769 L147.8106,137.9769 L147.8106,142.8909 L150.4616,142.8909 L150.4616,145.3989 L147.8106,145.3989 L147.8106,157.8349 C147.8726,160.3079 146.7366,161.5459 144.4016,161.5459 L140.6146,161.5459 C140.4246,160.6759 140.2036,159.8409 139.9516,159.0379 L143.3606,159.0379 C144.7476,159.0379 145.4116,158.3699 145.3486,157.0319 L145.3486,145.3989 L137.7736,145.3989 Z M130.7666,156.3299 L134.4596,156.3299 L134.4596,150.4129 L130.7666,150.4129 L130.7666,156.3299 Z M130.7666,148.1069 L134.4596,148.1069 L134.4596,142.1889 L130.7666,142.1889 L130.7666,148.1069 Z M128.3996,160.6429 L128.3996,139.7819 L136.8266,139.7819 L136.8266,160.3419 L134.4596,160.3419 L134.4596,158.7369 L130.7666,158.7369 L130.7666,160.6429 L128.3996,160.6429 Z" id="Fill-50" fill="#B1AEAE" mask="url(#mask-4)"></path>
                        <path d="M169.5703,144.3956 L167.9613,142.5896 C169.6013,141.2526 171.0853,139.9496 172.4113,138.6786 L174.1153,140.3836 C172.2833,142.0556 170.7693,143.3926 169.5703,144.3956 L169.5703,144.3956 Z M161.7113,155.3276 L167.1083,155.3276 L167.1083,151.8176 L161.7113,151.8176 L161.7113,155.3276 Z M159.3433,157.6336 L169.4753,157.6336 L169.4753,149.6106 L159.3433,149.6106 L159.3433,157.6336 Z M158.8703,144.2946 C157.4813,142.8906 156.0613,141.5866 154.6093,140.3836 L156.3143,138.6786 C157.7653,139.8816 159.2493,141.1536 160.7643,142.4896 L158.8703,144.2946 Z M154.3253,161.6456 L154.3253,144.7966 L163.1313,144.7966 L163.1313,137.9766 L165.6883,137.9766 L165.6883,144.7966 L174.4943,144.7966 L174.4943,158.2356 C174.6203,160.3746 173.6423,161.4456 171.5593,161.4456 L170.0443,161.4456 C169.2223,161.5106 168.5913,161.5456 168.1503,161.5456 C167.9613,160.7436 167.7713,159.9066 167.5823,159.0386 L170.6123,159.0386 C171.6213,159.0386 172.0943,158.6046 172.0323,157.7346 L172.0323,147.1036 L156.7873,147.1036 L156.7873,161.6456 L154.3253,161.6456 Z" id="Fill-51" fill="#B1AEAE" mask="url(#mask-4)"></path>
                        <path d="M195.4961,151.1154 L195.4961,151.6164 L198.3371,151.6164 L198.3371,147.6044 L195.4961,147.6044 L195.4961,151.1154 Z M195.4961,145.3984 L198.3371,145.3984 L198.3371,141.4864 L195.4961,141.4864 L195.4961,145.3984 Z M185.7431,152.0174 L189.9091,152.0174 L189.9091,149.9114 L185.7431,149.9114 L185.7431,152.0174 Z M185.7431,148.1064 L189.9091,148.1064 L189.9091,146.1004 L185.7431,146.1004 L185.7431,148.1064 Z M183.3761,142.2894 L183.3761,140.1824 L186.7851,140.1824 L186.7851,137.8764 L188.9621,137.8764 L188.9621,140.1824 L192.3711,140.1824 L192.3711,142.2894 L188.9621,142.2894 L188.9621,144.1944 L191.9931,144.1944 L191.9931,153.9234 L188.9621,153.9234 L188.9621,155.9284 L192.6551,155.9284 L192.6551,157.7344 C193.1601,156.2644 193.4131,153.9904 193.4131,150.9144 L193.4131,139.0804 L200.4201,139.0804 L200.4201,158.9374 C200.4201,160.6084 199.7571,161.4784 198.4321,161.5464 C198.1781,161.5464 197.7681,161.5784 197.2011,161.6454 L195.9701,161.6454 C195.9701,161.5784 195.9371,161.4454 195.8751,161.2444 C195.8111,160.3754 195.7161,159.7064 195.5911,159.2384 L196.3481,159.2384 C196.7271,159.3044 197.0111,159.3394 197.2011,159.3394 C198.0201,159.4044 198.3991,159.0384 198.3371,158.2354 L198.3371,153.8234 L195.4011,153.8234 C195.4011,156.8994 194.6111,159.6054 193.0341,161.9464 C192.4661,161.6784 191.8031,161.2774 191.0451,160.7434 C191.8031,159.6054 192.3081,158.7044 192.5601,158.0354 L188.9621,158.0354 L188.9621,161.8464 L186.7851,161.8464 L186.7851,158.0354 L182.9021,158.0354 L182.9021,155.9284 L186.7851,155.9284 L186.7851,153.9234 L183.7541,153.9234 L183.7541,144.1944 L186.7851,144.1944 L186.7851,142.2894 L183.3761,142.2894 Z M180.9141,143.2924 C180.2181,141.8874 179.4941,140.4834 178.7361,139.0804 L180.8191,138.2774 C181.1341,138.7464 181.5771,139.5484 182.1451,140.6844 C182.5851,141.4214 182.9021,141.9554 183.0921,142.2894 L180.9141,143.2924 Z M180.9141,161.7464 L178.6411,161.0444 C179.2711,158.4364 179.9031,155.3614 180.5351,151.8174 L182.8081,152.5184 C182.0501,155.7284 181.4181,158.8044 180.9141,161.7464 L180.9141,161.7464 Z M180.6301,149.9114 C180.3131,149.1774 179.5881,147.8054 178.4521,145.8004 L180.4401,144.8964 C180.7551,145.4324 181.1981,146.2004 181.7661,147.2034 C182.2071,148.0064 182.5231,148.5744 182.7131,148.9084 L180.6301,149.9114 Z" id="Fill-52" fill="#B1AEAE" mask="url(#mask-4)"></path>
                        <path d="M224.8311,161.4454 C219.4651,158.4364 216.3091,154.0914 215.3621,148.4074 C214.4151,154.0234 211.1961,158.4704 205.7041,161.7464 C205.1981,160.8764 204.5991,160.0414 203.9041,159.2384 C209.9651,155.9644 213.2151,150.9494 213.6581,144.1944 C213.7831,142.5904 213.8471,140.5844 213.8471,138.1764 L216.6871,138.1764 C216.6241,138.3784 216.5931,138.9794 216.5931,139.9824 C216.5291,140.7854 216.4981,141.3864 216.4981,141.7884 C217.0661,150.4804 220.4751,156.1974 226.7251,158.9374 C225.9041,159.8734 225.2721,160.7094 224.8311,161.4454" id="Fill-53" fill="#B1AEAE" mask="url(#mask-4)"></path>
                        <path d="M239.2051,159.2384 L237.3111,161.2444 L232.1981,155.3274 L233.9971,153.6224 L239.2051,159.2384 Z" id="Fill-54" fill="#B1AEAE" mask="url(#mask-4)"></path>
                        <path d="M271.4751,158.5363 L269.5811,157.2323 C269.6431,157.1673 269.7061,157.0663 269.7711,156.9323 C271.0331,155.4623 271.9491,154.3583 272.5161,153.6223 L274.6001,154.8263 C273.7791,155.8293 272.7371,157.0663 271.4751,158.5363 L271.4751,158.5363 Z M266.4561,140.6843 C264.8771,142.5573 262.8261,144.2623 260.3011,145.8003 L272.4211,145.8003 C270.0851,144.3953 268.0971,142.6903 266.4561,140.6843 L266.4561,140.6843 Z M260.7751,158.5363 C260.2691,157.8693 259.3221,156.6653 257.9341,154.9263 L259.8281,153.6223 C260.5221,154.4253 261.4061,155.4953 262.4791,156.8323 C262.3521,156.6983 262.4471,156.8323 262.7631,157.2323 L260.7751,158.5363 Z M276.3991,147.7053 C275.2621,147.1713 274.2211,146.6693 273.2741,146.2003 L273.2741,148.1063 L267.5921,148.1063 L267.5921,150.8143 L275.6411,150.8143 L275.6411,153.2213 L267.5921,153.2213 L267.5921,158.8383 L277.0621,158.8383 L277.0621,161.0443 L255.4721,161.0443 L255.4721,158.8383 L264.9411,158.8383 L264.9411,153.2213 L256.8931,153.2213 L256.8931,150.8143 L264.9411,150.8143 L264.9411,148.1063 L259.0711,148.1063 L259.0711,146.4013 C258.1861,146.8703 257.2071,147.3713 256.1351,147.9053 C256.0081,147.7053 255.8511,147.4383 255.6621,147.1033 C255.2191,146.3683 254.9041,145.8343 254.7151,145.4983 C259.9541,143.3593 263.5521,140.7523 265.5091,137.6763 L268.4451,137.9763 L267.8761,138.7793 C270.3381,141.7883 273.6211,143.8933 277.7241,145.0983 C277.5971,145.3653 277.3761,145.8003 277.0621,146.4013 C276.7451,147.0033 276.5251,147.4383 276.3991,147.7053 L276.3991,147.7053 Z" id="Fill-55" fill="#B1AEAE" mask="url(#mask-4)"></path>
                        <path d="M298.537,151.014 L300.336,151.014 L300.336,144.696 L298.537,144.696 L298.537,151.014 Z M295.128,151.015 L296.927,151.015 L296.927,144.697 L295.128,144.697 L295.128,151.015 Z M292.951,161.145 L292.572,158.838 C293.898,158.704 295.254,158.605 296.643,158.536 L296.643,153.321 L295.128,153.321 L295.128,155.026 L293.33,155.026 L293.33,142.39 L296.643,142.39 L296.643,138.077 L298.822,138.077 L298.822,142.39 L302.23,142.39 L302.23,153.321 L298.727,153.321 L298.727,158.437 L300.715,158.235 L300.052,155.127 L301.756,154.726 C301.819,154.993 301.914,155.395 302.041,155.929 C302.419,157.401 302.861,159.238 303.367,161.445 L301.568,161.847 L301.189,160.241 C297.148,160.643 294.402,160.943 292.951,161.145 L292.951,161.145 Z M283.861,146.301 L289.163,146.301 L289.163,144.195 L283.861,144.195 L283.861,146.301 Z M284.807,155.026 C284.428,154.091 283.986,153.189 283.482,152.318 L284.997,151.717 C285.059,151.917 285.186,152.186 285.375,152.519 C285.565,152.72 285.849,153.321 286.228,154.324 L284.807,155.026 Z M283.482,157.032 L283.482,155.127 L286.511,155.127 C287.142,153.858 287.648,152.72 288.027,151.717 L289.542,152.318 C289.163,153.256 288.72,154.192 288.216,155.127 L289.636,155.127 L289.636,157.032 L287.364,157.032 L287.364,161.044 L285.565,161.044 L285.565,157.032 L283.482,157.032 Z M281.872,148.107 L291.247,148.107 L291.247,142.39 L281.872,142.39 L281.872,148.107 Z M281.02,161.746 L281.02,149.51 L292.098,149.51 L292.098,159.038 C292.224,160.776 291.498,161.646 289.92,161.646 L288.311,161.646 L288.311,161.345 C288.248,160.943 288.122,160.375 287.932,159.64 L289.352,159.64 C289.983,159.706 290.267,159.404 290.205,158.737 L290.205,151.516 L282.914,151.516 L282.914,161.746 L281.02,161.746 Z M280.546,140.986 L292.287,140.986 L292.287,138.98 L280.546,138.98 L280.546,140.986 Z" id="Fill-56" fill="#B1AEAE" mask="url(#mask-4)"></path>
                        <path d="M323.8003,161.6456 L323.8003,149.2086 L320.9593,149.2086 L320.9593,149.6106 C321.0853,154.8936 320.2023,158.9726 318.3083,161.8466 C318.1193,161.7116 317.7723,161.4786 317.2673,161.1446 C316.8243,160.8086 316.4773,160.5426 316.2253,160.3416 C317.9303,158.0016 318.7183,154.3586 318.5923,149.4106 L318.5923,139.7826 C321.4333,139.6486 324.4003,139.3476 327.4933,138.8786 L328.2513,141.1856 C326.9883,141.3866 325.1263,141.6216 322.6643,141.8876 C321.9063,141.9556 321.3383,142.0226 320.9593,142.0886 L320.9593,146.8026 L328.6293,146.8026 L328.6293,149.2086 L326.0723,149.2086 L326.0723,161.6456 L323.8003,161.6456 Z M315.7513,158.4366 C315.3733,157.8346 314.8663,156.9316 314.2373,155.7286 C313.9843,155.2616 313.7943,154.9256 313.6683,154.7256 L315.4683,153.8236 C315.6573,154.0906 315.8773,154.4926 316.1303,155.0266 C316.7613,156.0296 317.2353,156.8326 317.5513,157.4336 L315.7513,158.4366 Z M306.3773,142.5896 L306.3773,140.3836 L310.7333,140.3836 C310.6693,140.1826 310.5743,139.8816 310.4493,139.4806 C310.2603,138.8136 310.1023,138.3776 309.9763,138.1766 L312.6273,137.8756 L313.3843,140.3836 L317.2673,140.3836 L317.2673,142.5896 L309.1233,142.5896 C309.7543,143.4596 310.3853,144.4296 311.0173,145.4986 L309.5973,146.3006 L312.3433,146.3006 C312.7223,145.6326 313.2573,144.5956 313.9523,143.1916 C313.8893,143.3266 313.9843,143.1596 314.2373,142.6906 L316.4143,143.4926 C315.8463,144.4956 315.2793,145.4326 314.7103,146.3006 L317.7403,146.3006 L317.7403,148.5066 L313.1013,148.5066 L313.1013,150.8146 L317.2673,150.8146 L317.2673,153.0206 L313.1013,153.0206 L313.1013,158.6366 C313.1623,160.5076 312.3113,161.4786 310.5443,161.5456 L309.5973,161.5456 C309.0913,161.6116 308.6813,161.6456 308.3653,161.6456 C308.3023,161.3776 308.2073,160.9766 308.0823,160.4426 C307.9543,159.8406 307.8603,159.4046 307.7983,159.1386 C308.1773,159.2046 308.7443,159.2386 309.5023,159.2386 C310.3853,159.3046 310.7953,158.9376 310.7333,158.1356 L310.7333,153.0206 L306.2823,153.0206 L306.2823,150.8146 L310.7333,150.8146 L310.7333,148.5066 L305.7143,148.5066 L305.7143,146.3006 L308.9343,146.3006 C308.8073,146.1006 308.6173,145.7996 308.3653,145.3986 C307.8603,144.5306 307.4813,143.9286 307.2303,143.5926 L309.0293,142.5896 L306.3773,142.5896 Z M307.4193,159.5406 L305.5263,158.7376 C306.2823,157.4006 307.0083,155.7956 307.7033,153.9226 L309.5973,154.6246 C308.8393,156.6306 308.1123,158.2706 307.4193,159.5406 L307.4193,159.5406 Z" id="Fill-57" fill="#B1AEAE" mask="url(#mask-4)"></path>
                        <path d="M343.856,143.794 L349.348,143.794 L349.348,141.788 L343.856,141.788 L343.856,143.794 Z M335.902,143.794 L341.394,143.794 L341.394,141.788 L335.902,141.788 L335.902,143.794 Z M333.914,157.434 L333.914,151.215 L351.336,151.215 L351.336,157.233 L348.875,157.233 L348.875,153.221 L336.47,153.221 L336.47,157.434 L333.914,157.434 Z M352,161.946 C348.78,160.609 345.591,159.44 342.435,158.437 C341.299,160.107 338.016,161.277 332.587,161.946 C332.524,161.879 332.46,161.746 332.398,161.546 C332.02,160.609 331.736,159.941 331.546,159.54 C336.721,159.071 339.72,158.235 340.542,157.032 C341.046,156.364 341.331,155.395 341.394,154.124 L344.045,154.124 C343.918,154.993 343.761,155.796 343.572,156.53 C347.042,157.669 350.231,158.704 353.135,159.64 L352,161.946 Z M333.535,145.8 L333.535,139.782 L341.394,139.782 L341.394,137.876 L343.856,137.876 L343.856,139.782 L351.715,139.782 L351.715,145.8 L343.856,145.8 L343.856,147.404 L354.083,147.404 L354.083,149.51 L331.167,149.51 L331.167,147.404 L341.394,147.404 L341.394,145.8 L333.535,145.8 Z" id="Fill-58" fill="#B1AEAE" mask="url(#mask-4)"></path>
                        <path d="M366.4683,159.2384 L364.5733,161.2444 L359.4603,155.3274 L361.2603,153.6224 L366.4683,159.2384 Z" id="Fill-59" fill="#B1AEAE" mask="url(#mask-4)"></path>
                        <path d="M400.4429,151.0148 L393.6249,151.0148 C394.5079,152.8878 395.6139,154.4248 396.9389,155.6278 C398.5159,154.3588 399.6849,152.8208 400.4429,151.0148 L400.4429,151.0148 Z M391.0679,148.0058 C390.5009,147.2028 389.9939,146.5008 389.5529,145.8998 C391.6989,144.8968 392.6779,143.2268 392.4889,140.8848 L392.4889,138.9798 L401.7679,138.9798 L401.7679,143.1918 C401.7049,144.1948 402.1149,144.6628 402.9999,144.5958 L404.9879,144.5958 C404.8609,145.0648 404.7349,145.7338 404.6089,146.6018 L404.6089,146.9028 L402.0519,146.9028 C400.1589,146.9698 399.2429,146.0678 399.3059,144.1948 L399.3059,141.2858 L394.8559,141.2858 L394.8559,141.9888 C394.9819,144.5308 393.7189,146.5358 391.0679,148.0058 L391.0679,148.0058 Z M403.7559,161.7458 C401.0419,160.9438 398.7379,159.9738 396.8439,158.8378 C395.0119,159.9738 392.6779,161.0098 389.8379,161.9468 C389.7109,161.6788 389.5209,161.2778 389.2689,160.7438 C388.9529,160.2068 388.7319,159.8058 388.6059,159.5398 C391.1299,159.0048 393.2469,158.2028 394.9509,157.1328 C393.3719,155.4618 392.1719,153.6218 391.3519,151.6168 L392.3939,151.0148 L390.7849,151.0148 L390.7849,148.6078 L403.1889,148.6078 L403.1889,151.1158 C402.1779,153.3888 400.7569,155.3948 398.9269,157.1328 C400.6319,158.2028 402.6819,158.9378 405.0829,159.3388 C404.8299,159.7408 404.4509,160.4078 403.9459,161.3448 C403.8819,161.5458 403.8189,161.6788 403.7559,161.7458 L403.7559,161.7458 Z M382.3569,144.8968 L382.3569,142.4898 L385.0079,142.4898 L385.0079,138.0768 L387.2809,138.0768 L387.2809,142.4898 L389.8379,142.4898 L389.8379,144.8968 L387.2809,144.8968 L387.2809,149.3098 L389.6479,148.8088 C389.5849,149.8118 389.5849,150.6478 389.6479,151.3158 L387.2809,151.9168 L387.2809,158.7378 C387.3429,160.6758 386.5539,161.6458 384.9139,161.6458 C384.3449,161.7118 383.5879,161.7458 382.6409,161.7458 C382.5779,161.2098 382.4829,160.5078 382.3569,159.6398 C382.2939,159.3718 382.2619,159.2038 382.2619,159.1388 L383.8719,159.1388 C384.6919,159.2038 385.0699,158.8378 385.0079,158.0358 L385.0079,152.6188 L382.1679,153.4218 L381.9779,150.6138 C382.2299,150.5478 382.6079,150.4478 383.1149,150.3128 C383.9339,150.1128 384.5659,149.9788 385.0079,149.9108 L385.0079,144.8968 L382.3569,144.8968 Z" id="Fill-60" fill="#B1AEAE" mask="url(#mask-4)"></path>
                        <path d="M415.1948,149.5099 C415.0068,149.1769 414.5938,148.4749 413.9648,147.4049 C417.7518,146.5359 419.9918,145.0649 420.6868,142.9909 C420.6868,142.9259 420.7178,142.8589 420.7818,142.7909 C420.8438,142.5249 420.8768,142.2239 420.8768,141.8879 L418.1308,141.8879 C417.5618,142.8909 416.8048,143.9289 415.8578,144.9969 C415.2898,144.4629 414.6578,143.9609 413.9648,143.4919 C415.6048,141.8229 416.8048,139.9169 417.5618,137.7769 L419.9298,138.0769 C419.7408,138.6789 419.5178,139.2469 419.2668,139.7819 L429.5888,139.7819 L429.5888,141.8879 L428.2618,144.7969 C427.9458,144.6629 427.5058,144.4949 426.9368,144.2949 C426.4948,144.1619 426.1468,144.0619 425.8948,143.9939 L427.0318,141.8879 L423.3388,141.8879 C423.3388,141.9549 423.3058,142.0559 423.2438,142.1889 C423.2438,142.3899 423.2118,142.5249 423.1488,142.5899 C423.9688,144.9969 426.3998,146.5689 430.4398,147.3039 L429.3038,149.6109 C425.5158,148.6749 423.1488,147.2029 422.2028,145.1979 C421.2558,147.0029 418.9198,148.4419 415.1948,149.5099 L415.1948,149.5099 Z M410.6498,157.2329 L410.6498,149.8119 L427.4108,149.8119 L427.4108,157.1329 L424.8538,157.1329 L424.8538,152.0179 L413.1118,152.0179 L413.1118,157.2329 L410.6498,157.2329 Z M411.8818,142.9909 C411.5648,142.7249 411.0908,142.2889 410.4608,141.6879 C409.5138,140.8199 408.8188,140.2179 408.3778,139.8819 L409.9878,138.1769 C410.3018,138.4459 410.7448,138.8139 411.3128,139.2809 C412.4498,140.0829 413.2068,140.6849 413.5858,141.0859 L411.8818,142.9909 Z M408.9458,161.8469 C408.8828,161.7799 408.8188,161.6459 408.7568,161.4459 C408.3778,160.5079 408.0928,159.8409 407.9038,159.4399 C414.0908,158.9729 417.3088,157.5689 417.5618,155.2269 C417.6878,154.6929 417.7518,153.9899 417.7518,153.1209 L420.3078,153.1209 C420.3078,153.9899 420.2138,154.7929 420.0248,155.5279 C420.0248,155.7289 419.9608,155.9639 419.8358,156.2299 C421.1608,156.6309 423.0858,157.2679 425.6108,158.1359 C427.5058,158.7379 428.9248,159.2039 429.8728,159.5399 L428.7358,161.8469 C424.6318,160.1739 421.3178,158.9379 418.7938,158.1359 C417.4678,159.8059 414.1848,161.0439 408.9458,161.8469 L408.9458,161.8469 Z M409.0408,149.7109 L407.5248,147.7049 C409.4198,146.3679 411.2178,144.9969 412.9228,143.5929 C412.9228,143.6599 412.9848,143.7279 413.1118,143.7939 C413.3008,144.0619 413.7118,144.6299 414.3428,145.4979 C411.8818,147.3709 410.1128,148.7759 409.0408,149.7109 L409.0408,149.7109 Z" id="Fill-61" fill="#B1AEAE" mask="url(#mask-4)"></path>
                        <path d="M433.4517,147.1036 L433.4517,144.3956 L443.0147,144.3956 C443.0777,142.9256 443.1097,140.8196 443.1097,138.0776 L445.9507,138.0776 L445.7617,144.3956 L455.3247,144.3956 L455.3247,147.1036 L445.8557,147.1036 C446.6757,152.8546 449.9897,156.8326 455.7987,159.0386 C455.1667,159.7066 454.5667,160.5426 453.9997,161.5456 C448.7587,159.1386 445.5717,155.5946 444.4347,150.9146 C443.4257,155.4616 440.2367,159.1036 434.8717,161.8466 C434.6817,161.5786 434.3347,161.0776 433.8307,160.3416 C433.4517,159.8736 433.1987,159.5406 433.0727,159.3386 C439.1337,156.6656 442.3517,152.5856 442.7307,147.1036 L433.4517,147.1036 Z" id="Fill-62" fill="#B1AEAE" mask="url(#mask-4)"></path>
                        <path d="M464.017,148.107 L475.759,148.107 L475.759,146.201 L464.017,146.201 L464.017,148.107 Z M461.555,150.112 L478.221,150.112 L478.221,144.194 L461.555,144.194 L461.555,150.112 Z M464.68,161.847 C464.553,161.044 464.396,160.207 464.207,159.339 L467.616,159.339 C468.625,159.404 469.13,158.973 469.13,158.035 L469.13,155.628 L474.623,153.923 L459.472,153.923 L459.472,151.818 L479.357,151.818 L479.357,154.224 L471.782,156.832 L471.782,158.838 C471.844,160.709 470.835,161.679 468.751,161.746 C467.995,161.812 466.636,161.847 464.68,161.847 L464.68,161.847 Z M458.62,142.489 L458.62,140.283 L468.941,140.283 C468.877,140.151 468.783,139.917 468.657,139.581 C468.404,138.914 468.214,138.445 468.089,138.177 L470.835,137.776 C471.024,138.177 471.276,138.847 471.592,139.782 C471.655,139.983 471.718,140.151 471.782,140.283 L481.156,140.283 L481.156,142.489 L458.62,142.489 Z" id="Fill-63" fill="#B1AEAE" mask="url(#mask-4)"></path>
                    </g>
                    <rect id="Rectangle-27" fill-opacity="0" fill="#D8D8D8" x="254" y="249" width="100" height="47"></rect>
                    <rect id="Rectangle-26" fill-opacity="0" fill="#D8D8D8" x="143" y="0" width="121" height="23"></rect>
                    <g id="Page-1-Copy" transform="translate(0.000000, 23.000000)">
                        <path d="M59.3065,119.6875 C26.3215,119.6875 0.1975,93.0105 0.1975,60.0255 C0.1975,27.0405 26.9365,0.3015 59.9215,0.3015 C86.8985,0.3015 109.6975,17.1875 117.1085,41.7475" id="Fill-1" fill="#CE576F"></path>
                        <path d="M64.9315,111.9375 C63.4495,112.4885 62.0505,112.2505 59.9215,112.2505 C31.0785,112.2505 7.6965,88.8685 7.6965,60.0255 C7.6965,31.1825 31.0785,7.8005 59.9215,7.8005 C85.1305,7.8005 106.1685,25.6625 111.0695,49.4205 C108.9995,52.6645 72.5485,101.5445 64.9315,111.9375" id="Fill-3" fill="#E05E50"></path>
                        <path d="M128.1971,26.619 L46.5641,136.886" id="Stroke-5" stroke="#DEC971" stroke-width="0.5"></path>
                        <g id="Page-1" transform="translate(23.000000, 42.000000)">
                            <path d="M28.853,7.6094 C27.364,6.0154 25.899,4.6084 24.454,3.3864 L26.737,1.0274 C28.347,2.3434 29.914,3.6584 31.436,4.9714 L28.853,7.6094 Z M13.641,13.5124 L13.804,10.0194 L18.786,9.4954 C18.962,6.6104 19.264,3.4444 19.687,0.0004 L23.272,0.0254 C23.146,1.0504 23.001,2.5864 22.839,4.6324 C22.587,6.6814 22.448,8.1714 22.423,9.1014 L33.067,7.9184 L32.788,11.2694 L22.259,12.5924 L22.135,14.6874 C22.06,16.7374 22.07,18.4604 22.164,19.8574 C24.506,18.1054 26.805,15.9764 29.061,13.4784 L31.292,15.8684 C28.137,19.2014 25.199,21.8354 22.481,23.7724 C22.621,24.7994 22.969,25.9204 23.53,27.1324 C24.144,28.6294 24.893,29.3784 25.779,29.3834 C26.575,29.3884 27.124,28.8814 27.428,27.8584 C27.941,26.5584 28.463,24.8394 28.992,22.7004 C30.251,23.2664 31.262,23.6934 32.024,23.9774 C31.507,26.0234 30.929,27.8364 30.293,29.4154 C29.54,31.9244 27.978,33.1244 25.599,33.0154 C23.119,32.9984 21.325,31.7274 20.218,29.2054 C20.01,28.7404 19.752,27.9454 19.448,26.8254 C19.314,26.4534 19.216,26.1724 19.152,25.9844 C17.032,27.3674 14.481,28.6554 11.501,29.8444 C11.357,29.5634 11.137,29.1904 10.841,28.7214 C10.413,27.8804 10.049,27.2274 9.754,26.7584 C13.112,25.3834 16.084,23.9164 18.668,22.3494 C18.503,19.3684 18.475,16.7124 18.584,14.3834 L18.623,12.9874 L13.641,13.5124 Z M1.888,9.6584 L2.299,6.3074 L6.947,6.3394 L7.719,0.0574 L11.171,0.0814 L10.399,6.3634 L14.648,6.3924 L14.237,9.7434 L9.987,9.7134 L9.181,16.2754 L13.799,15.4684 C13.65,16.6784 13.545,17.8904 13.486,19.0994 L8.735,19.9044 L7.637,28.8384 C7.393,31.5394 6.032,32.8804 3.555,32.8634 C2.228,32.8544 1.075,32.8464 0.103,32.8394 C0.137,32.5604 0.116,32.0024 0.042,31.1624 C0.057,30.3244 0.041,29.7174 0,29.3454 C0.531,29.3494 1.328,29.3544 2.391,29.3624 C3.618,29.4634 4.255,28.9564 4.305,27.8384 L5.197,20.5794 C4.389,20.6674 3.165,20.8924 1.526,21.2524 C0.983,21.3424 0.574,21.4334 0.297,21.5234 L0.395,17.4724 C0.849,17.3834 1.524,17.2944 2.422,17.2084 C3.859,17.0314 4.945,16.8524 5.677,16.6714 L6.535,9.6904 L1.888,9.6584 Z" id="Fill-1" fill="#DEC971"></path>
                            <g id="Group-5" transform="translate(34.000000, 0.118200)">
                                <mask id="mask-6" fill="white">
                                    <use xlink:href="#path-5"></use>
                                </mask>
                                <g id="Clip-4"></g>
                                <path d="M21.7314,32.9648 C21.7254,31.5678 21.6484,30.4018 21.4964,29.4708 C23.0904,29.4818 24.5514,29.4908 25.8784,29.4998 C27.2934,29.5098 28.0494,28.7718 28.1454,27.2798 L31.4564,0.3368 L35.0414,0.3618 L31.6104,28.2828 C31.4094,31.3548 29.7974,32.9268 26.7784,32.9998 C25.1844,32.9888 23.5024,32.9778 21.7314,32.9648 L21.7314,32.9648 Z M21.3814,24.9988 L23.9714,3.9188 L27.2914,3.9418 L24.7014,25.0218 L21.3814,24.9988 Z M4.1644,5.0388 L4.5764,1.6898 L22.5024,1.8138 L22.0914,5.1628 L13.4604,5.1038 C13.3474,5.2908 13.1374,5.5688 12.8254,5.9388 C10.9124,8.5338 9.3874,10.4798 8.2544,11.7758 C9.2384,11.6898 10.8004,11.6068 12.9364,11.5278 C14.2754,11.4438 15.2984,11.4038 16.0074,11.4088 C15.6024,10.3818 15.0694,9.3068 14.4104,8.1838 L17.2544,6.6668 C17.3854,7.0398 17.6314,7.5548 17.9954,8.2078 C19.5764,11.2018 20.6804,13.3978 21.3064,14.7978 L18.2944,16.5948 C17.9424,15.8478 17.6744,15.1468 17.4894,14.4918 C12.5964,14.6478 9.1654,14.8088 7.1954,14.9808 C6.7524,14.9778 6.0764,15.0668 5.1694,15.2458 C4.7144,15.3368 4.3994,15.3808 4.2234,15.3798 L3.4224,12.1598 C4.0864,11.7928 4.6194,11.4238 5.0204,11.0528 C6.5654,9.2958 8.0934,7.3028 9.6084,5.0768 L4.1644,5.0388 Z M2.3844,22.7728 L2.7954,19.4208 L9.5684,19.4678 L9.9974,15.9778 L13.4494,16.0008 L13.0214,19.4908 L19.6604,19.5368 L19.2494,22.8888 L12.6094,22.8428 L11.9914,27.8678 L19.5314,27.0818 C19.3504,27.8268 19.1754,28.8958 19.0034,30.2918 C17.5644,30.4668 15.4114,30.6858 12.5434,30.9448 C7.6064,31.4698 3.7414,31.9078 0.9524,32.2638 L0.8504,28.7688 C2.2764,28.6868 4.5564,28.5158 7.6914,28.2578 C5.5434,28.4298 5.8144,28.3848 8.5044,28.1238 L9.1564,22.8188 L2.3844,22.7728 Z" id="Fill-3" fill="#DEC971" mask="url(#mask-6)"></path>
                            </g>
                        </g>
                    </g>
                </g>
            </g>
        </g>
    </g>
</svg>